<svg xmlns="http://www.w3.org/2000/svg" viewBox="0 0 120.5 119.93"><defs><style>.cls-1{fill:#344154;}</style></defs><title>alert</title><g id="Layer_2"><g id="Layer_1-2"><g id="Layer_2-2"><g id="Icon_Set"><path d="M37.5 94.4H18.4a1.5 1.5 0 0 1 0-3h16.1v-1.6a4.8 4.8 0 0 0-4.1-4.73l-11.56-1.7a1.5 1.5 0 1 1 .43-3l11.57 1.7a7.82 7.82 0 0 1 6.66 7.73zM102.86 119.93h-4.12a8.9 8.9 0 0 1-8.88-8.93v-2.62H30.63V111a8.9 8.9 0 0 1-8.88 8.88h-4.12A8.9 8.9 0 0 1 8.75 111V77.87l-6.6-2.4A3.3 3.3 0 0 1 0 72.36v-6a3.3 3.3 0 0 1 3.3-3.3h8.55a5.15 5.15 0 0 0 4.53-2.7l8.53-15.64A11 11 0 0 1 34.6 39h51.3a11 11 0 0 1 9.7 5.8l8.5 15.67a5.15 5.15 0 0 0 4.54 2.7h8.57a3.3 3.3 0 0 1 3.3 3.3v6a3.32 3.32 0 0 1-2.17 3.08l-6.58 2.4V111a8.9 8.9 0 0 1-8.9 8.93zM27.63 105.4h65.23v5.6a5.9 5.9 0 0 0 5.88 5.88h4.12a5.9 5.9 0 0 0 5.88-5.88V75.8l8.55-3.13a.3.3 0 0 0 .2-.28v-6a.3.3 0 0 0-.3-.3h-8.57a8.15 8.15 0 0 1-7.16-4.26L93 46.17a8 8 0 0 0-7-4.22H34.6a8 8 0 0 0-7 4.2L19 61.82a8.15 8.15 0 0 1-7.16 4.26H3.3a.3.3 0 0 0-.3.3v6a.3.3 0 0 0 .2.28l8.55 3.13V111a5.9 5.9 0 0 0 5.88 5.88h4.12a5.9 5.9 0 0 0 5.88-5.88zM97 66.2H23.47L32.7 49.4a4.1 4.1 0 0 1 3.58-2.14h47.9a4.1 4.1 0 0 1 3.62 2.14zm-68.48-3h63.43l-6.78-12.38a1.1 1.1 0 0 0-1-.58h-47.9a1.1 1.1 0 0 0-1 .58zM102.1 94.4H83v-4.6a7.82 7.82 0 0 1 6.65-7.7l11.58-1.68a1.5 1.5 0 0 1 .43 3l-11.58 1.65A4.8 4.8 0 0 0 86 89.8v1.6h16.12a1.5 1.5 0 0 1 0 3zM73.13 94.68H47.37a1.5 1.5 0 0 1 0-3h25.76a1.5 1.5 0 0 1 0 3zM73.13 94.68H73A1.5 1.5 0 0 1 71.64 93l1-8.53H47.88l1 8.53a1.5 1.5 0 1 1-3 .34l-1.36-11.86H76l-1.38 11.87a1.5 1.5 0 0 1-1.5 1.33zM29.14 108.43h-7.72a1.5 1.5 0 0 1 0-3h7.72a1.5 1.5 0 0 1 0 3zM99.08 108.43h-7.72a1.5 1.5 0 0 1 0-3h7.72a1.5 1.5 0 0 1 0 3zM67.7 32.33H52.8a4.52 4.52 0 0 1-4.52-4.5V4.5a4.52 4.52 0 0 1 4.5-4.5h14.93a4.52 4.52 0 0 1 4.52 4.5v23.32a4.52 4.52 0 0 1-4.5 4.5zM52.8 3a1.5 1.5 0 0 0-1.52 1.5v23.32a1.5 1.5 0 0 0 1.5 1.5h14.93a1.5 1.5 0 0 0 1.52-1.5V4.52A1.5 1.5 0 0 0 67.72 3zM55.44 16.08h3v3h-3zM62.06 16.08h3v3h-3zM55.44 21.54h3v3h-3zM62.06 21.54h3v3h-3zM70.72 12.7H49.78a1.5 1.5 0 0 1 0-3h20.94a1.5 1.5 0 0 1 0 3zM106.5 43.68h-3a14.37 14.37 0 0 0-14.32-14.36v-3a17.37 17.37 0 0 1 17.32 17.36zM112.58 43.68h-1.5a22 22 0 0 0-21.94-22v-3a25 25 0 0 1 24.94 24.93zM14 43.68a17.37 17.37 0 0 1 17.3-17.36v3A14.37 14.37 0 0 0 17 43.68zM6.42 43.68a24.94 24.94 0 0 1 24.94-25v3A22 22 0 0 0 9.42 43.66z" class="cls-1"/></g></g></g></g></svg>