<svg xmlns="http://www.w3.org/2000/svg" viewBox="0 0 117.4 102.9" enable-background="new 0 0 117.4 102.9"><style type="text/css">.st0{fill:#344154;}</style><title>asset</title><g id="Layer_2"><g id="Icon_Set"><path d="M53.7 95.2c-.5 0-1-.1-1.4-.3l-2.6-1.2h-.1c-.8-.4-1.3-1-1.6-1.8-.3-.8-.2-1.7.1-2.5l.7-1.3c-1.1-1.1-2-2.5-2.7-4l-1.5.1c-1.9.2-3.5-1.2-3.6-3l-.2-2.9c-.1-1.9 1.2-3.5 3-3.6l1.5-.1c.4-1.6 1.1-3 2.1-4.3l-.9-1.2c-1-1.5-.6-3.6.9-4.6l2.4-1.6c1.5-1 3.6-.7 4.6.9l.8 1.2c1.6-.4 3.2-.5 4.8-.4l.7-1.4c.8-1.6 2.8-2.3 4.4-1.5l2.6 1.2c1.6.9 2.2 2.7 1.5 4.3l-.7 1.4c1.1 1.2 2.1 2.5 2.7 4l1.5-.1c1.9-.2 3.5 1.2 3.6 3l.2 2.9c.1 1.9-1.2 3.5-3 3.6l-1.5.1c-.4 1.6-1.1 3-2.1 4.3l.9 1.2c1 1.5.7 3.6-.9 4.6l-2.4 1.6c-.7.5-1.6.7-2.5.5-.9-.2-1.6-.7-2.1-1.4l-.8-1.2c-1.5.3-3.1.5-4.7.3l-.7 1.4c-.6 1.2-1.8 1.8-3 1.8zM51.1 91l2.5 1.2c.2.1.3 0 .4-.1l1.6-3.4 1.1.2c1.8.3 3.8.2 5.5-.4l1.1-.4 2.1 3.1c.1.1.3.2.4.1l2.4-1.6c.1-.1.2-.3.1-.4l-2.1-3.1.7-.9c1.2-1.4 2-3.2 2.4-5l.2-1.1 3.7-.3c.1 0 .2-.1.2-.1s.1-.1.1-.2l-.2-2.9c0-.1-.1-.2-.1-.2s-.1-.1-.2-.1l-3.8.3-.4-1.1c-.6-1.8-1.7-3.4-3.2-4.6l-.9-.7 1.6-3.4c.1-.1 0-.3-.2-.4l-2.5-1.2c-.2-.1-.3 0-.4.1l-1.6 3.4-1.1-.2c-1.8-.3-3.8-.2-5.5.4l-1 .3-2.1-3.1c-.1-.1-.3-.2-.4-.1l-2.4 1.6c-.1.1-.2.3-.1.4l2.1 3.1-.7.9c-1.2 1.4-2 3.2-2.4 5l-.2 1.1-3.8.4c-.2 0-.3.2-.3.3l.2 2.9c0 .2.2.3.3.3l3.8-.3.4 1.1c.6 1.8 1.7 3.4 3.2 4.6l.9.8-1.7 3.3c0 .1 0 .1 0 .2 0 0 0 .1 0 .1l.3.1zM58.7 102.9c-13.7 0-24.8-11.1-24.8-24.8S45 53.4 58.7 53.4c13.7 0 24.8 11.1 24.8 24.8s-11.2 24.7-24.8 24.7zm0-46.5c-12 0-21.8 9.8-21.8 21.8S46.7 100 58.7 100s21.8-9.8 21.8-21.8-9.8-21.8-21.8-21.8zM9.9 52.7c-.4 0-.8-.1-1.1-.4-.6-.6-.6-1.5 0-2.1l21.8-21.8c.6-.6 1.5-.6 2.1 0 .6.6.6 1.5 0 2.1L11 52.2c-.3.3-.7.5-1.1.5zM5.7 48.5c-.4 0-.8-.1-1.1-.4-.6-.6-.6-1.5 0-2.1l21.8-21.8c.6-.6 1.5-.6 2.1 0 .6.6.6 1.5 0 2.1L6.8 48c-.3.3-.7.5-1.1.5zM1.5 44.3c-.4 0-.8-.1-1.1-.4-.6-.6-.6-1.5 0-2.1L22.2 20c.6-.6 1.5-.6 2.1 0 .6.6.6 1.5 0 2.1L2.6 43.8c-.3.3-.7.5-1.1.5zM107.5 52.7c-.4 0-.8-.1-1.1-.4L84.6 30.4c-.6-.6-.6-1.5 0-2.1.6-.6 1.5-.6 2.1 0l21.8 21.8c.6.6.6 1.5 0 2.1-.3.3-.7.5-1 .5zM111.7 48.5c-.4 0-.8-.1-1.1-.4L88.8 26.2c-.6-.6-.6-1.5 0-2.1s1.5-.6 2.1 0l21.8 21.8c.6.6.6 1.5 0 2.1-.3.3-.6.5-1 .5zM115.9 44.3c-.4 0-.8-.1-1.1-.4L93 22c-.6-.6-.6-1.5 0-2.1.6-.6 1.5-.6 2.1 0L117 41.7c.6.6.6 1.5 0 2.1-.3.3-.7.5-1.1.5zM11.3 32.9L.2 21.8 22 0h73.4l21.8 21.8-11.1 11.1-2.2-2.1 9-9L94.1 3H23.3L4.5 21.8l9 9zM36.9 75.4L15.3 53.7l19-19L56 56.3l-2.6.7c-7.8 2-13.8 8-15.8 15.8l-.7 2.6zM19.5 53.7l15.9 15.9c2.5-6.8 7.9-12.2 14.7-14.7L34.3 39 19.5 53.7zM80.4 75.4l-.6-2.6C77.8 65 71.8 59 64 57l-2.6-.6L83 34.8l19 19-21.6 21.6zM67.2 54.9c6.8 2.5 12.2 7.9 14.7 14.7l15.9-15.9L83.1 39 67.2 54.9zM58.7 29.5c-5.8 0-10.5-4.7-10.5-10.5S52.9 8.5 58.7 8.5 69.2 13.2 69.2 19s-4.7 10.5-10.5 10.5zm0-18c-4.1 0-7.5 3.4-7.5 7.5s3.4 7.5 7.5 7.5 7.5-3.4 7.5-7.5-3.4-7.5-7.5-7.5zM58.7 23.8c-2.6 0-4.8-2.2-4.8-4.8 0-2.6 2.2-4.8 4.8-4.8 2.6 0 4.8 2.2 4.8 4.8 0 2.6-2.2 4.8-4.8 4.8zm0-6.7c-1 0-1.8.8-1.8 1.8s.8 1.8 1.8 1.8 1.8-.8 1.8-1.8c0-.9-.8-1.8-1.8-1.8zM70.5 41.5c-.7 0-1.4-.6-1.5-1.3l-2.8-22.5c-.1-.8.5-1.6 1.3-1.7.8-.1 1.6.5 1.7 1.3L72 39.8c.1.8-.5 1.6-1.3 1.7-.1 0-.2 0-.2 0zM46.9 41.5c-.1 0-.1 0-.2 0-.8-.1-1.4-.8-1.3-1.7l2.8-22.5c.1-.8.9-1.4 1.7-1.3.8.1 1.4.8 1.3 1.7l-2.8 22.5c-.1.7-.7 1.3-1.5 1.3z" class="st0"/></g></g></svg>