<svg xmlns="http://www.w3.org/2000/svg" viewBox="0 0 111 100.8" enable-background="new 0 0 111 100.8"><style type="text/css">.st0{fill:#344154;}</style><title>battery</title><g id="Layer_2"><g id="Icon_Set"><path d="M111 23.7H0V10.4h111v13.3zm-108-3h105v-7.4H3v7.4zM111 100.8H0V87.4h111v13.4zm-108-3h105v-7.4H3v7.4zM103.8 90.4H7.2V20.7h96.5v69.7zm-93.6-3h90.5V23.7H10.2v63.7zM37.6 13.4H16.4V3.9c0-2.1 1.7-3.9 3.9-3.9h13.5c2.1 0 3.9 1.7 3.9 3.9v9.5zm-18.2-3h15.2V3.9c0-.5-.4-.9-.9-.9H20.2c-.5 0-.9.4-.9.9v6.5zM94.7 13.4H73.4V3.9c0-2.1 1.7-3.9 3.9-3.9h13.4c2.1 0 3.9 1.7 3.9 3.9v9.5zm-18.3-3h15.2V3.9c0-.5-.4-.9-.9-.9H77.3c-.5 0-.9.4-.9.9v6.5zM25.5 27.5h3v11.7h-3zM21.1 31.9h11.7v3H21.1zM78.2 31.9h11.7v3H78.2zM47.9 79.2c-.2 0-.5-.1-.7-.2-.6-.3-.9-1.1-.7-1.8l5.7-16.7-9.2-.1c-.6 0-1.1-.3-1.3-.8-.2-.5-.2-1.1.2-1.6l19.9-25.7c.4-.6 1.3-.7 1.9-.4.6.3.9 1.1.7 1.8l-5.7 16.7 9.2.1c.6 0 1.1.3 1.3.8.2.5.2 1.1-.2 1.6L49.1 78.7c-.3.3-.7.5-1.2.5zm-1.7-21.6l8.2.1c.5 0 .9.2 1.2.6.3.4.4.9.2 1.4l-3.5 10.1 12.5-16.1-8.2-.1c-.5 0-.9-.2-1.2-.6-.3-.4-.4-.9-.2-1.4l3.5-10.1-12.5 16.1z" class="st0"/></g></g></svg>