<svg xmlns="http://www.w3.org/2000/svg" viewBox="0 0 82.9 106.8" enable-background="new 0 0 82.9 106.8"><style type="text/css">.st0{fill:#344154;}</style><title>bearing</title><g id="Layer_2"><g id="Icon_Set"><path d="M78.3 95.6H4.7c-2.6 0-4.7-2.1-4.7-4.7V15.8c0-2.6 2.1-4.7 4.7-4.7h73.6c2.6 0 4.7 2.1 4.7 4.7v75.1c0 2.6-2.1 4.7-4.7 4.7zM4.7 14.1c-.9 0-1.7.8-1.7 1.7v75.1c0 .9.8 1.7 1.7 1.7h73.6c.9 0 1.7-.8 1.7-1.7V15.8c0-.9-.8-1.7-1.7-1.7H4.7zM81.5 21.1h-80c-.8 0-1.5-.7-1.5-1.5s.7-1.5 1.5-1.5h80c.8 0 1.5.7 1.5 1.5s-.7 1.5-1.5 1.5zM81.5 88.6h-80c-.8 0-1.5-.7-1.5-1.5s.7-1.5 1.5-1.5h80c.8 0 1.5.7 1.5 1.5s-.7 1.5-1.5 1.5zM20.9 14.2c-.4 0-.8-.1-1.1-.4-.6-.6-.6-1.5 0-2.1l6.3-6.3h30.8l6.2 6.2c.6.6.6 1.5 0 2.1-.6.6-1.5.6-2.1 0l-5.4-5.4H27.3l-5.4 5.4c-.3.4-.7.5-1 .5zM55.7 3H27.2c-.8 0-1.5-.7-1.5-1.5S26.4 0 27.2 0h28.4c.8 0 1.5.7 1.5 1.5S56.5 3 55.7 3zM56.9 101.4H26.1l-6.3-6.3c-.6-.6-.6-1.5 0-2.1s1.5-.6 2.1 0l5.4 5.4h28.3L61 93c.6-.6 1.5-.6 2.1 0s.6 1.5 0 2.1l-6.2 6.3zM55.7 106.8H27.2c-.8 0-1.5-.7-1.5-1.5s.7-1.5 1.5-1.5h28.4c.8 0 1.5.7 1.5 1.5s-.6 1.5-1.4 1.5zM41.5 78.3c-.8 0-1.5-.7-1.5-1.5V29.9c0-.8.7-1.5 1.5-1.5s1.5.7 1.5 1.5v46.9c0 .8-.7 1.5-1.5 1.5zM53.7 77.8c-.8 0-1.5-.7-1.5-1.5v-47c0-.8.7-1.5 1.5-1.5s1.5.7 1.5 1.5v46.9c0 .9-.7 1.6-1.5 1.6zM66 77.2c-.8 0-1.5-.7-1.5-1.5V28.8c0-.8.7-1.5 1.5-1.5s1.5.7 1.5 1.5v46.9c0 .8-.7 1.5-1.5 1.5zM17 78.3c-.8 0-1.5-.7-1.5-1.5V29.9c0-.8.7-1.5 1.5-1.5s1.5.7 1.5 1.5v46.9c0 .8-.7 1.5-1.5 1.5zM29.2 77.8c-.8 0-1.5-.7-1.5-1.5v-47c0-.8.7-1.5 1.5-1.5s1.5.7 1.5 1.5v46.9c0 .9-.7 1.6-1.5 1.6z" class="st0"/></g></g></svg>