<svg xmlns="http://www.w3.org/2000/svg" viewBox="0 0 133.2 90.4" enable-background="new 0 0 133.2 90.4"><style type="text/css">.st0{fill:#344154;}</style><title>board1</title><g id="Layer_2"><g id="Icon_Set"><path d="M70.7 44.2H60c-.8 0-1.5-.7-1.5-1.5s.7-1.5 1.5-1.5h7.7v-.1c0-.9-.7-1.6-1.5-1.8l-6-.8c-.8-.1-1.4-.9-1.3-1.7.1-.8.9-1.4 1.7-1.3l6.1.9c2.3.3 4.1 2.4 4.1 4.7v3.1zM104.2 59.9H102c-3 0-5.4-2.4-5.4-5.4v-3H67.2v3c0 3-2.4 5.4-5.4 5.4h-2.2c-3 0-5.4-2.4-5.4-5.4V35.4l-3-1.1c-1-.3-1.6-1.3-1.6-2.3v-3.2c0-1.3 1.1-2.4 2.4-2.4h4.5c.7 0 1.4-.4 1.7-1l4.5-8.2c1.1-2.1 3.3-3.4 5.7-3.4h26.9c2.4 0 4.6 1.3 5.7 3.4l4.5 8.2c.3.6 1 1 1.7 1h4.5c1.3 0 2.4 1.1 2.4 2.4V32c0 1-.7 1.9-1.6 2.3l-3 1.1v19.2c.1 2.9-2.3 5.3-5.3 5.3zm-40-11.3h35.5v6c0 1.3 1.1 2.4 2.4 2.4h2.2c1.3 0 2.4-1.1 2.4-2.4V33.3l4.6-1.7v-2.2h-3.9c-1.8 0-3.5-1-4.4-2.6l-4.5-8.2c-.6-1.1-1.8-1.8-3.1-1.8H68.5c-1.3 0-2.5.7-3.1 1.8L61 26.8c-.9 1.6-2.5 2.6-4.4 2.6h-3.9v2.2l4.6 1.7v21.3c0 1.3 1.1 2.4 2.4 2.4h2.2c1.3 0 2.4-1.1 2.4-2.4v-6zM99.8 29.5H64c-.8 0-1.5-.7-1.5-1.5s.7-1.5 1.5-1.5h35.8c.8 0 1.5.7 1.5 1.5s-.6 1.5-1.5 1.5zM103.8 44.2H93.1v-3.1c0-2.4 1.7-4.4 4.1-4.7l6.1-.9c.8-.1 1.6.4 1.7 1.3s-.4 1.6-1.3 1.7l-6.1.9c-.9.1-1.5.9-1.5 1.8v.1h7.7c.8 0 1.5.7 1.5 1.5s-.7 1.4-1.5 1.4zm-7.7-1.5zM88.7 44.4H75.2c-.8 0-1.5-.7-1.5-1.5s.7-1.5 1.5-1.5h13.5c.8 0 1.5.7 1.5 1.5s-.7 1.5-1.5 1.5zM88.7 44.4c-.1 0-.1 0-.2 0-.8-.1-1.4-.8-1.3-1.7l.4-3.7H76.2l.4 3.7c.1.8-.5 1.6-1.3 1.7-.8.1-1.6-.5-1.7-1.3l-.8-7H91l-.8 7c-.1.7-.8 1.3-1.5 1.3zM65.6 51.6h-4c-.8 0-1.5-.7-1.5-1.5s.7-1.5 1.5-1.5h4c.8 0 1.5.7 1.5 1.5s-.6 1.5-1.5 1.5zM103.4 51.6h-5.2c-.8 0-1.5-.7-1.5-1.5s.7-1.5 1.5-1.5h5.2c.8 0 1.5.7 1.5 1.5s-.7 1.5-1.5 1.5zM65.6 51.6h-5.2c-.8 0-1.5-.7-1.5-1.5s.7-1.5 1.5-1.5h5.2c.8 0 1.5.7 1.5 1.5s-.6 1.5-1.5 1.5z" class="st0"/><path id="_Path_" d="M38 42.2H20.6c-.8 0-1.5-.7-1.5-1.5s.7-1.5 1.5-1.5H38c.8 0 1.5.7 1.5 1.5s-.7 1.5-1.5 1.5z" class="st0"/><path id="_Path_2" d="M38 49.6H20.6c-.8 0-1.5-.7-1.5-1.5s.7-1.5 1.5-1.5H38c.8 0 1.5.7 1.5 1.5s-.7 1.5-1.5 1.5z" class="st0"/><path id="_Path_3" d="M38 57H20.6c-.8 0-1.5-.7-1.5-1.5s.7-1.5 1.5-1.5H38c.8 0 1.5.7 1.5 1.5S38.8 57 38 57z" class="st0"/><path id="_Rectangle_" d="M127.1 90.3H6.1c-3.3 0-6.1-2.7-6.1-6.1v-5.5c0-.8.7-1.5 1.5-1.5h130.2c.8 0 1.5.7 1.5 1.5v5.5c0 3.4-2.8 6.1-6.1 6.1zM3 80.3v4c0 1.7 1.4 3.1 3.1 3.1h121c1.7 0 3.1-1.4 3.1-3.1v-4H3z" class="st0"/><path id="_Rectangle_2" d="M123.2 80.3H10c-.8 0-1.5-.7-1.5-1.5v-73c0-3.2 2.6-5.8 5.8-5.8h104.6c3.2 0 5.8 2.6 5.8 5.8v73c0 .8-.7 1.5-1.5 1.5zm-111.7-3h110.2V5.8c0-1.6-1.3-2.8-2.8-2.8H14.3c-1.5 0-2.8 1.3-2.8 2.8v71.5z" class="st0"/><path d="M39.9 34.5H18.7V13.8h21.2v20.7zm-18.2-3h15.2V16.8H21.7v14.7z" class="st0"/></g></g></svg>