<svg xmlns="http://www.w3.org/2000/svg" viewBox="0 0 137.7 110.4" enable-background="new 0 0 137.7 110.4"><style type="text/css">.st0{fill:#344154;}</style><title>care</title><g id="Layer_2"><g id="Icon_Set"><path d="M57.7 30.4H47c-.8 0-1.5-.7-1.5-1.5s.7-1.5 1.5-1.5h7.7v-.1c0-.9-.7-1.6-1.5-1.8l-6.1-.9c-.8-.1-1.4-.9-1.3-1.7.1-.8.9-1.4 1.7-1.3l6.1.9c2.3.3 4.1 2.4 4.1 4.7v3.2zM89 46.1c-3 0-5.3-2.4-5.3-5.4v-3H54.1v3c0 3-2.4 5.4-5.4 5.4h-2.2c-3 0-5.4-2.4-5.4-5.4V21.6l-3-1.1c-1-.3-1.6-1.3-1.6-2.3V15c0-1.3 1.1-2.4 2.4-2.4h4.5c.7 0 1.4-.4 1.7-1l4.5-8.2C50.9 1.3 53.1 0 55.4 0h26.9c2.4 0 4.5 1.3 5.7 3.4l4.5 8.1c.4.6 1 1 1.7 1h4.5c1.3 0 2.4 1.1 2.4 2.4v3.2c0 1-.7 1.9-1.6 2.3l-3 1.1v19.2c0 2.9-2.4 5.3-5.3 5.4H89zM51.1 34.8h35.5v6c0 1.3 1.1 2.4 2.4 2.4h2.2c1.3 0 2.3-1.1 2.3-2.4V19.5l4.6-1.7v-2.2h-3.9c-1.8 0-3.5-1-4.4-2.6l-4.5-8.1c-.6-1.2-1.7-1.9-3-1.9H55.4c-1.3 0-2.5.7-3.1 1.8L47.9 13c-.9 1.6-2.5 2.6-4.4 2.6h-3.9v2.2l4.6 1.7v21.3c0 1.3 1.1 2.4 2.4 2.4h2.2c1.3 0 2.4-1.1 2.4-2.4v-6zM86.8 15.7H51c-.8 0-1.5-.7-1.5-1.5s.7-1.5 1.5-1.5h35.8c.8 0 1.5.7 1.5 1.5s-.7 1.5-1.5 1.5zM90.8 30.4H80v-3.1c0-2.4 1.8-4.4 4.1-4.7l6.1-.9c.8-.1 1.6.4 1.7 1.3.1.8-.4 1.6-1.3 1.7l-6.1.9c-.9.1-1.5.9-1.5 1.8v.1h7.7c.8 0 1.5.7 1.5 1.5s-.6 1.4-1.4 1.4zM75.6 30.6H62.1c-.8 0-1.5-.7-1.5-1.5s.7-1.5 1.5-1.5h13.5c.8 0 1.5.7 1.5 1.5s-.7 1.5-1.5 1.5zM62.1 30.6c-.8 0-1.4-.6-1.5-1.3l-.8-7h18.1l-.8 7c-.1.8-.8 1.4-1.7 1.3-.8-.1-1.4-.8-1.3-1.7l.4-3.7H63.2l.4 3.7c.1.8-.5 1.6-1.3 1.7-.1 0-.1 0-.2 0zM52.6 37.8h-4c-.8 0-1.5-.7-1.5-1.5s.7-1.5 1.5-1.5h4c.8 0 1.5.7 1.5 1.5s-.7 1.5-1.5 1.5zM90.3 37.8h-5.2c-.8 0-1.5-.7-1.5-1.5s.7-1.5 1.5-1.5h5.2c.8 0 1.5.7 1.5 1.5s-.6 1.5-1.5 1.5zM52.6 37.8h-5.2c-.8 0-1.5-.7-1.5-1.5s.7-1.5 1.5-1.5h5.2c.8 0 1.5.7 1.5 1.5s-.7 1.5-1.5 1.5zM63.4 87.2c-.7 0-1.3-.4-1.4-1.1l-2.3-8.2c-2-7-6.9-12.7-13.4-15.7l-5.7-2.7c-3.8-1.8-6.6-5.1-7.8-9.1l-2.9-10.1.3-2c.4-2.7-.9-5.4-3.2-6.8l-.2-.1c-.7-.4-.9-1.4-.5-2.1.4-.7 1.4-.9 2.1-.5l.1.1c3.3 2 5.1 5.9 4.6 9.8l-.2 1.3 2.7 9.5c.9 3.2 3.1 5.8 6.1 7.2l5.7 2.7c7.4 3.4 12.8 9.8 15.1 17.7l2.3 8.2c.2.8-.2 1.6-1 1.9-.1 0-.3 0-.4 0zM40.1 95.5c-.5 0-1.1-.3-1.3-.8-1.8-3.4-5-5.9-8.9-6.7l-1.3-.3c-6.9-1.8-12.9-6.5-16.3-12.7C8.9 69.4 5.1 63.9.8 58.8l-.8-1 .9-1c.1-.1 2.6-2.7 6.7-2.5 3.6.2 7.1 2.4 10.4 6.7 3.8 4.9 9.7 7.6 15.8 7.1.3 0 .7-.1 1.1-.1.8-.1 1.6.5 1.7 1.3.1.8-.5 1.6-1.3 1.7-.4 0-.8 0-1.2 0-7.2.5-14.1-2.5-18.5-8.2-2.7-3.5-5.5-5.4-8.1-5.5-1.4-.1-2.6.4-3.4.8C8 63 11.7 68.2 14.9 73.6c3.1 5.5 8.3 9.6 14.4 11.3l1.2.3c4.7 1 8.6 3.9 10.9 8.2.4.7.1 1.6-.6 2-.2 0-.4.1-.7.1zM8.3 57.4c-.7 0-1.3-.5-1.5-1.2L3.9 42.7l8.9-27.5 1.4.3c2.1.5 5.9 3.4 4.7 10.3l-3.7 16.5 2.5 10.3c.2.8-.3 1.6-1.1 1.8-.8.2-1.6-.3-1.8-1.1L12 42.4l3.9-17.1c.6-3.4-.4-5.2-1.2-6L7 42.9l2.8 12.7c.2.8-.3 1.6-1.1 1.8-.2-.1-.3 0-.4 0zM22.5 52.9c-.7 0-1.3-.4-1.4-1.1l-2.9-10.2L21.8 23c1.2-4.6-.5-7-1.8-8.1l-1.7 5.2c-.3.8-1.1 1.2-1.9 1-.8-.3-1.2-1.1-1-1.9l2.7-8.5 1.5.5c2.6 1 7 4.8 5.1 12.4l-3.4 17.8L24 51c.2.8-.2 1.6-1 1.9-.2 0-.3 0-.5 0zM28.6 51.6c-.7 0-1.3-.4-1.4-1.1l-3-10.3 2-11.2c.6-3-.7-6.1-3.1-7.9l-.3-.2c-.7-.5-.8-1.4-.3-2.1.5-.7 1.4-.8 2.1-.3l.3.2c3.4 2.5 5.1 6.7 4.3 10.9l-2 10.4 2.8 9.7c.2.8-.2 1.6-1 1.9-.2 0-.3 0-.4 0zM40.9 110.4c-.6 0-1.2-.4-1.4-.9l-5.3-13.2c-.2-.4-.1-.8 0-1.2.2-.4.5-.7.9-.8l27.8-10c.5-.2 1-.1 1.4.2.4.3.6.7.6 1.2v6.7c0 .8-.7 1.5-1.5 1.5s-1.5-.7-1.5-1.5v-4.6l-24.3 8.8 4.2 10.5 18.3-5.6c.8-.2 1.6.2 1.9 1 .2.8-.2 1.6-1 1.9l-19.6 6c-.2 0-.4 0-.5 0zM37.9 102.9c-.6 0-1.2-.4-1.4-1-.3-.8.1-1.6.9-1.9l25.5-9c.8-.3 1.6.1 1.9.9.3.8-.1 1.6-.9 1.9l-25.5 9c-.2.1-.3.1-.5.1zM74.4 87.2c-.1 0-.3 0-.4-.1-.8-.2-1.3-1.1-1-1.9l2.3-8.2c2.2-7.8 7.7-14.2 15.1-17.7l5.7-2.7c3-1.4 5.2-4 6.1-7.2l2.7-9.5-.2-1.3c-.5-3.9 1.3-7.7 4.6-9.8l.1-.1c.7-.4 1.6-.2 2.1.5.4.7.2 1.6-.5 2.1l-.1.1c-2.3 1.5-3.6 4.1-3.2 6.8l.3 2-3 10.2c-1.1 4-4 7.4-7.8 9.1l-5.7 2.7c-6.6 3-11.5 8.8-13.4 15.7l-2.3 8.2c-.2.7-.8 1.1-1.4 1.1zM97.6 95.5c-.2 0-.5-.1-.7-.2-.7-.4-1-1.3-.6-2 2.2-4.2 6.2-7.2 10.9-8.2l1.2-.3c6-1.6 11.3-5.7 14.4-11.2 3.3-5.4 6.9-10.6 10.8-15.5-.8-.5-1.9-.9-3.4-.8-2.6.1-5.4 2-8.1 5.5-4.4 5.7-11.3 8.8-18.4 8.2-.5 0-.9-.1-1.3-.1-.8-.1-1.4-.9-1.3-1.7.1-.8.9-1.4 1.7-1.3.4.1.8.1 1.2.1 6.1.5 12-2.2 15.8-7.1 3.3-4.3 6.8-6.5 10.4-6.7 4.1-.2 6.6 2.4 6.7 2.6l.9 1-.8 1c-4.2 5.1-8.1 10.6-11.5 16.3-3.4 6.2-9.4 10.8-16.3 12.6l-1.3.3c-3.8.8-7.1 3.2-8.9 6.6-.3.6-.9.9-1.4.9zM129.5 57.4c-.1 0-.2 0-.3 0-.8-.2-1.3-1-1.1-1.8l2.8-12.7-7.7-23.7c-.9.9-1.8 2.6-1.2 6.1l3.9 17-2.9 11c-.2.8-1 1.3-1.8 1.1-.8-.2-1.3-1-1.1-1.8l2.5-10.3-3.7-16.4c-1.2-7 2.5-9.8 4.7-10.3l1.4-.3 9 27.5-2.9 13.5c-.3.6-.9 1.1-1.6 1.1zM115.2 52.9c-.1 0-.3 0-.4-.1-.8-.2-1.3-1.1-1-1.9l2.7-9.5-3.5-17.8c-1.9-7.5 2.5-11.3 5.1-12.3l1.5-.5 2.7 8.5c.3.8-.2 1.6-1 1.9-.8.3-1.6-.2-1.9-1l-1.7-5.2c-1.3 1.1-3 3.5-1.8 8l3.6 18.7-2.9 10.2c-.1.6-.7 1-1.4 1zM109.2 51.6c-.1 0-.3 0-.4-.1-.8-.2-1.3-1.1-1-1.9l2.8-9.7-1.9-10.4c-.8-4.1.9-8.4 4.3-10.9l.3-.2c.7-.5 1.6-.3 2.1.3.5.7.3 1.6-.3 2.1l-.3.2c-2.4 1.8-3.7 4.9-3.1 7.9l2.1 11.1-3 10.3c-.4.9-1 1.3-1.6 1.3zM96.8 110.4c-.1 0-.3 0-.4-.1l-19.6-6c-.8-.2-1.2-1.1-1-1.9.2-.8 1.1-1.2 1.9-1L96 107l4.2-10.5-24.3-8.8v4.6c0 .8-.7 1.5-1.5 1.5s-1.5-.7-1.5-1.5v-6.7c0-.5.2-.9.6-1.2.4-.3.9-.3 1.4-.2l27.8 10c.4.1.7.4.9.8.2.4.2.8 0 1.2l-5.3 13.2c-.3.6-.9 1-1.5 1zM99.8 102.9c-.2 0-.3 0-.5-.1l-25.5-9c-.8-.3-1.2-1.1-.9-1.9.3-.8 1.1-1.2 1.9-.9l25.5 9c.8.3 1.2 1.1.9 1.9-.2.6-.7 1-1.4 1z" class="st0"/></g></g></svg>