<svg xmlns="http://www.w3.org/2000/svg" viewBox="0 0 100.5 100.5" enable-background="new 0 0 100.5 100.5"><style type="text/css">.st0{fill:#344154;}</style><title>cogs2</title><g id="Layer_2"><g id="Icon_Set"><path d="M4 98.1c-.4 0-.8-.1-1.1-.4-.6-.6-.6-1.5 0-2.1l20.9-20.9c.6-.6 1.5-.6 2.1 0 .6.6.6 1.5 0 2.1L5 97.6c-.3.3-.7.5-1 .5zM10.1 100.3c-2.4 0-4.8-.9-6.7-2.6C1.5 95.9.3 93.5.2 90.8s.8-5.2 2.6-7.1L36.5 50c.6-.6 1.5-.6 2.1 0 .6.6.6 1.5 0 2.1L5.1 85.8c-1.2 1.3-1.9 3.1-1.8 4.9s.9 3.5 2.2 4.8c2.6 2.4 6.7 2.4 9.3 0l33.7-33.7c.6-.6 1.5-.6 2.1 0s.6 1.5 0 2.1L16.9 97.6c-1.9 1.8-4.3 2.7-6.8 2.7zM59.5 48.3c-.4 0-.8-.1-1.1-.4-.6-.6-.6-1.5 0-2.1l24.9-24.9-3.7-3.7L54.8 42c-.6.6-1.5.6-2.1 0-.6-.6-.6-1.5 0-2.1L78.6 14c.3-.3.7-.4 1.1-.4.4 0 .8.2 1.1.4l5.8 5.8c.6.6.6 1.5 0 2.1l-26 26c-.3.3-.7.4-1.1.4zM85.1 22.6l-7.2-7.2 3.4-8.6L92.1 0l8.4 8.4-6.8 10.8-8.6 3.4zm-3.7-7.9l4.4 4.4 5.9-2.3 5-7.9-5-5-7.9 5-2.4 5.8zM88.9 100c-2.4 0-4.9-.8-6.9-2.5l-.1-.1-56.8-56.8c-2.9.7-6 .7-9 0C5.2 38.2-1.7 27.4.7 16.4l.6-2.7 12.5 12.5 9.6-2.6L26 14 13.5 1.6l2.6-.6c6.8-1.5 13.8.5 18.7 5.5 5 5 7 12.2 5.4 19l56.9 56.9c3.3 4 3.3 9.8 0 13.7-2.1 2.5-5.1 3.9-8.2 3.9zM84 95.2c3.3 2.7 8.1 2.2 10.8-1 2.4-2.9 2.4-7 0-9.9l-58-58 .2-.8c1.7-6 0-12.5-4.4-16.9-3.5-3.5-8.3-5.3-13.1-5l9.7 9.7-3.4 12.9-12.9 3.4L3.2 20c-.4 8.3 5.2 15.9 13.5 17.8 2.8.6 5.7.5 8.4-.2l.8-.2L84 95.2zM96 97.8c-.4 0-.8-.1-1.1-.4L78.6 81.1c-.6-.6-.6-1.5 0-2.1.6-.6 1.5-.6 2.1 0L97 95.3c.6.6.6 1.5 0 2.1-.2.3-.6.4-1 .4z" class="st0"/></g></g></svg>