<svg xmlns="http://www.w3.org/2000/svg" viewBox="0 0 143.8 76.6" enable-background="new 0 0 143.8 76.6"><style type="text/css">.st0{fill:#344154;}</style><title>crane</title><g id="Layer_2"><g id="Icon_Set"><path d="M13.4 23.5c-.4 0-.8-.1-1.1-.4l-3.4-3.4H3.7c-.8 0-1.5-.7-1.5-1.5s.7-1.5 1.5-1.5h6.5l4.3 4.3c.6.6.6 1.5 0 2.1-.4.2-.8.4-1.1.4z" class="st0"/><path id="_Path_" d="M86.2 50.8c-5.2 0-9.5-4.3-9.5-9.5s4.3-9.5 9.5-9.5 9.5 4.3 9.5 9.5-4.3 9.5-9.5 9.5zm0-16.1c-3.6 0-6.5 2.9-6.5 6.5s2.9 6.5 6.5 6.5 6.5-2.9 6.5-6.5-3-6.5-6.5-6.5z" class="st0"/><path id="_Path_2" d="M23.4 50.8c-5.2 0-9.5-4.3-9.5-9.5s4.3-9.5 9.5-9.5 9.5 4.3 9.5 9.5-4.3 9.5-9.5 9.5zm0-16.1c-3.6 0-6.5 2.9-6.5 6.5s2.9 6.5 6.5 6.5 6.5-2.9 6.5-6.5-2.9-6.5-6.5-6.5z" class="st0"/><path d="M101.5 44.6H94v-3h7.2l-.1-5.3c0-.3-.1-.4-.2-.5L98 33.9v-4c0-.1 0-.2-.2-.3-1.9-.9-7.5-3-18.2-3.6-4.1-.2-8-1.3-11.7-3.1l-8.7-4.3c-3.2-1.6-6.8-2.4-10.3-2.4H38c-6.9 0-13.7 1.7-19.7 5.1-3.9 2.4-8.5 3.7-13.2 3.6v3.9l-.3.4C3.6 30.9 3 32.9 3 34.9c0 .3.1 6.6 4.9 6.6h7.7v3H7.9c-6.2 0-7.9-6.3-7.9-9.7 0-2.5.7-4.9 2.1-7v-3.6c.1-1.4 1.3-2.5 2.7-2.4 4.2.1 8.3-1 11.9-3.2 6.5-3.7 13.8-5.6 21.3-5.5h11c4 0 8.1 1 11.7 2.8l8.7 4.3c3.3 1.6 6.9 2.6 10.5 2.8 10.8.6 16.7 2.7 19.3 3.8 1.3.6 2 1.9 1.9 3.3v2.1l1.6 1c1 .7 1.6 1.9 1.5 3.1l.1 5.5c-.1 1.5-1.3 2.8-2.8 2.8zM4.7 24.9zM31.8 41.6h45.9v3H31.8zM113.7 12.9h-3V4c0-.5-.4-1-1-1-.5 0-1 .4-1 1v8.9h-3V4c0-2.2 1.8-4 4-4s4 1.8 4 4v8.9zM141.7 48.1h-19.9V12.9h3v32.2h16.9zM8.7 63h18.2v3H8.7zM37.5 76.5c-6.4 0-11.7-5.2-11.7-11.7 0-6.4 5.2-11.7 11.7-11.7s11.7 5.2 11.7 11.7c-.1 6.5-5.3 11.7-11.7 11.7zm0-20.3c-4.8 0-8.7 3.9-8.7 8.7 0 4.8 3.9 8.7 8.7 8.7 4.8 0 8.7-3.9 8.7-8.7-.1-4.8-3.9-8.7-8.7-8.7zM37.5 67.3c-1.3 0-2.4-1.1-2.4-2.4s1.1-2.4 2.4-2.4c1.3 0 2.4 1.1 2.4 2.4s-1.1 2.4-2.4 2.4zm0-3c-.3 0-.6.3-.6.6s.3.6.6.6.6-.3.6-.6-.3-.6-.6-.6zM65.1 67.3c-1.3 0-2.4-1.1-2.4-2.4s1.1-2.4 2.4-2.4 2.4 1.1 2.4 2.4-1.1 2.4-2.4 2.4zm0-3c-.3 0-.6.3-.6.6s.3.6.6.6.6-.3.6-.6-.2-.6-.6-.6zM122.9 67.3c-1.3 0-2.4-1.1-2.4-2.4s1.1-2.4 2.4-2.4 2.4 1.1 2.4 2.4-1.1 2.4-2.4 2.4zm0-3c-.3 0-.6.3-.6.6s.3.6.6.6.6-.3.6-.6-.3-.6-.6-.6zM65.1 76.5c-6.4 0-11.7-5.2-11.7-11.7 0-6.4 5.2-11.7 11.7-11.7s11.7 5.2 11.7 11.7c0 6.5-5.2 11.7-11.7 11.7zm0-20.3c-4.8 0-8.7 3.9-8.7 8.7 0 4.8 3.9 8.7 8.7 8.7 4.8 0 8.7-3.9 8.7-8.7 0-4.8-3.9-8.7-8.7-8.7zM143.8 61.4h-13l-.4-.8c-.8-1.4-1.9-2.5-3.3-3.3-4.2-2.3-9.4-.9-11.8 3.3l-.4.8H73.1l-.4-.8c-.8-1.4-1.9-2.5-3.3-3.3-4.2-2.3-9.4-.9-11.8 3.3l-.4.8H45.4l-.4-.8c-.8-1.4-1.9-2.5-3.3-3.3-4.2-2.3-9.4-.9-11.8 3.3l-.4.8H8.7V47.8h14.7v3H11.7v7.6h16.1c3.4-5 10.1-6.7 15.4-3.6 1.6.9 2.9 2.1 3.9 3.6h8.3c3.4-5 10.1-6.7 15.4-3.6 1.6.9 2.9 2.1 3.9 3.6H113c1.5-2.3 3.8-4 6.6-4.7 3-.8 6.1-.4 8.8 1.1 1.6.9 2.9 2.1 3.9 3.6h8.3v-.5c0-12.2-2-24.2-6-35.8-1.8-4.6-6.5-7.8-11.5-7.7h-9.5v28c0 4.6-3.8 8.4-8.4 8.4h-19v-3h19.2c3 0 5.4-2.4 5.4-5.4v-31h12.5s.1 0 .1 0c6.2 0 12 3.9 14.2 9.7 4.1 11.9 6.2 24.3 6.2 36.8v3.5zM122.9 76.5c-6.4 0-11.7-5.2-11.7-11.7 0-6.4 5.2-11.7 11.7-11.7s11.7 5.2 11.7 11.7c-.1 6.5-5.3 11.7-11.7 11.7zm0-20.3c-4.8 0-8.7 3.9-8.7 8.7 0 4.8 3.9 8.7 8.7 8.7s8.7-3.9 8.7-8.7c-.1-4.8-4-8.7-8.7-8.7z" class="st0"/></g></g></svg>