<svg xmlns="http://www.w3.org/2000/svg" viewBox="0 0 85.5 107" enable-background="new 0 0 85.5 107"><style type="text/css">.st0{fill:#344154;}</style><title>door</title><g id="Layer_2"><g id="Icon_Set"><path d="M77.5 39.8H8.2L27.8 8h49.7v31.8zm-63.9-3h60.9V11h-45L13.6 36.8zM47.6 26.2c-.3 0-.5-.1-.8-.2-.7-.4-.9-1.4-.5-2.1l3.8-6.2c.4-.7 1.4-.9 2.1-.5.7.4.9 1.4.5 2.1l-3.8 6.2c-.3.5-.8.7-1.3.7zM52.1 30.8c-.3 0-.5-.1-.8-.2-.7-.4-.9-1.4-.5-2.1l6.6-10.7c.4-.7 1.4-.9 2.1-.5.7.4.9 1.4.5 2.1L53.4 30c-.3.5-.8.8-1.3.8zM85.5 107H32.6v-2.3c0-17.9-13.5-32.6-31.3-34.3L0 70.2V37.9L23.3 0h62.2v107zm-49.9-3h46.9V3H25L3 38.8v28.8c18.5 2.3 32.3 17.7 32.6 36.4zM39.8 98.6c-.8 0-1.4-.6-1.5-1.4-1.6-15.9-13.2-28.8-28.9-32-.8-.2-1.3-1-1.2-1.8s1-1.3 1.8-1.2C27 65.8 39.6 79.7 41.3 97c.1.8-.5 1.6-1.3 1.6-.1 0-.2 0-.2 0zM77.5 58.2h-21v-4.8c0-.8.7-1.5 1.5-1.5s1.5.7 1.5 1.5v1.8h15v-6.8c0-.8.7-1.5 1.5-1.5s1.5.7 1.5 1.5v9.8zM67 65.3h-9c-.8 0-1.5-.7-1.5-1.5s.7-1.5 1.5-1.5h9c.8 0 1.5.7 1.5 1.5s-.7 1.5-1.5 1.5z" class="st0"/></g></g></svg>