<svg xmlns="http://www.w3.org/2000/svg" viewBox="0 0 97.4 97.4" enable-background="new 0 0 97.4 97.4"><style type="text/css">.st0{fill:#344154;}</style><title>fan</title><g id="Layer_2"><g id="Icon_Set"><path d="M48.5 80.5c-.7 0-1.5 0-2.2-.1-2.7-.2-5.3-1.7-6.8-3.8-1.2-1.7-1.6-3.7-1.1-5.5.8-2.9 2.1-5.7 3.9-9.4-1-.5-2-1.1-2.9-1.9-2.7 2.1-6.6 5.5-8.5 9.5-.2.4-.5.8-.8 1.1-.7.6-1.5.9-2.4.9-.9 0-1.7-.4-2.3-1.1-2.1-2.3-3.9-4.9-5.3-7.8-1.2-2.4-1.2-5.4-.1-7.8.9-1.9 2.4-3.2 4.2-3.7 2.9-.8 6-1 10.1-1.3-.1-1.1 0-2.3.2-3.4-3.1-1.3-8.1-2.9-12.4-2.6-.4.1-.9 0-1.4-.1-1.8-.6-2.7-2.5-2.2-4.2.9-3 2.3-5.8 4.1-8.5 1.6-2.2 4.1-3.8 6.7-4 2.1-.2 3.9.5 5.3 1.8 2.1 2.2 3.9 4.7 6.2 8.1.9-.6 2-1.1 3-1.5-.4-3.3-1.4-8.4-4-12.1-.2-.3-.4-.8-.5-1.2-.2-.9 0-1.8.5-2.5.5-.8 1.2-1.3 2.1-1.5 3.1-.7 6.3-.9 9.4-.7 2.7.2 5.3 1.7 6.8 3.8 1.2 1.7 1.6 3.7 1.1 5.5-.8 2.9-2.1 5.7-3.9 9.4 1 .5 2 1.1 2.8 1.9 4.2-3.2 7-6.4 8.5-9.5.2-.4.4-.8.8-1.1.7-.6 1.5-.9 2.4-.9.9 0 1.7.4 2.3 1.1 2.1 2.3 3.9 4.9 5.3 7.8 1.2 2.4 1.2 5.4.1 7.8-.9 1.9-2.4 3.2-4.2 3.7-2.9.8-6 1-10.1 1.3.1 1.1 0 2.3-.2 3.4 3.1 1.3 8.1 2.9 12.4 2.6.5 0 .9 0 1.4.1 1.8.6 2.7 2.5 2.2 4.3-.9 3-2.3 5.8-4.1 8.5-1.5 2.2-4.1 3.8-6.7 4-2.1.2-3.9-.5-5.3-1.9-2.1-2.2-3.9-4.7-6.2-8.1-.9.6-2 1.1-3 1.5.4 3.3 1.4 8.4 4 12.1.3.3.4.8.5 1.2.2.9 0 1.8-.5 2.5-.5.8-1.2 1.3-2.1 1.5-2.3.5-4.7.8-7.1.8zm-9-24.1c.4 0 .8.2 1.1.4 1.2 1.2 2.7 2.1 4.2 2.7.4.1.7.5.9.8.2.4.1.8 0 1.2l-.3.6c-2 4.1-3.3 6.8-4.1 9.7-.3 1.3.2 2.3.6 3 1 1.4 2.8 2.4 4.6 2.6 2.9.2 5.7 0 8.6-.7.2 0 .3-.2.3-.4 0-.1 0-.1-.1-.1-3.3-4.8-4.3-11.3-4.6-14.7-.1-.7.4-1.4 1.1-1.6 1.6-.4 3.1-1.2 4.4-2.3.3-.3.8-.4 1.2-.3.4.1.8.3 1 .6l.3.4c2.6 3.9 4.3 6.4 6.5 8.6.9.9 2.1 1 2.9 1 1.7-.1 3.5-1.2 4.5-2.7 1.6-2.4 2.8-5 3.7-7.7 0-.1 0-.2 0-.3 0-.1-.1-.1-.2-.2-.1 0-.1 0-.2 0 0 0 0 0-.1 0-5.3.4-11.1-1.6-15-3.4-.7-.3-1-1.1-.8-1.8.5-1.6.5-3.3.2-5-.1-.4 0-.9.3-1.2.3-.3.7-.5 1.1-.6h.6c4.6-.3 7.6-.6 10.5-1.3 1.3-.3 1.9-1.3 2.3-2.1.7-1.6.7-3.6-.1-5.2-1.2-2.6-2.9-4.9-4.8-7-.1-.2-.4-.2-.5 0 0 0-.1.1-.1.1-2 3.7-5.5 7.5-10.6 11.3-.6.4-1.4.4-2-.1-1.2-1.2-2.7-2.1-4.2-2.7-.4-.1-.7-.5-.9-.8s-.1-.8 0-1.2l.3-.6c2-4.1 3.3-6.8 4.1-9.7.3-1.3-.2-2.3-.6-3-1-1.4-2.8-2.4-4.6-2.5-2.9-.2-5.7 0-8.6.7-.1 0-.2.1-.2.2s-.1.2 0 .3c0 0 0 .1.1.1 3.3 4.8 4.3 11.3 4.6 14.7.1.7-.4 1.4-1.1 1.6-1.6.4-3.1 1.2-4.4 2.3-.3.3-.8.4-1.2.3-.4-.1-.8-.3-1-.6l-.3-.4c-2.6-3.8-4.3-6.4-6.4-8.5-.9-.9-2.1-1-2.9-1-1.7.1-3.5 1.2-4.5 2.7-1.6 2.4-2.8 4.9-3.7 7.7-.1.2 0 .4.2.5.1 0 .1 0 .2 0 5.4-.4 11.2 1.6 15.1 3.4.7.3 1 1.1.8 1.8-.5 1.6-.6 3.3-.3 5 .1.4 0 .8-.3 1.2-.3.3-.7.5-1.1.6h-.6c-4.6.3-7.6.6-10.5 1.3-1.3.3-1.9 1.3-2.3 2.1-.7 1.6-.7 3.6.1 5.2 1.3 2.6 2.9 4.9 4.8 7 .1.1.2.1.3.1.1 0 .2 0 .3-.1 0 0 .1-.1.1-.1 2.3-4.9 7-8.9 10.4-11.4.3-.4.6-.5.9-.5zm36.1-1zM49 56.5c-2.1 0-4.1-.8-5.5-2.3-1.5-1.5-2.2-3.4-2.2-5.5s.8-4 2.3-5.5C45 41.8 47 41 49.1 41c4.2 0 7.7 3.5 7.7 7.7v.1c0 2.1-.8 4-2.3 5.5-1.5 1.4-3.4 2.2-5.5 2.2zM49 44c-1.3 0-2.4.5-3.3 1.4-.9.9-1.4 2.1-1.4 3.3 0 1.3.5 2.5 1.4 3.4.9.9 2.1 1.4 3.3 1.4 1.3 0 2.5-.5 3.4-1.4.9-.9 1.4-2.1 1.4-3.3l1.5-.1h-1.5c-.1-2.6-2.2-4.7-4.8-4.7zM48.7 89.1c-10.4 0-20.7-3.9-28.6-11.8-15.8-15.8-15.8-41.4 0-57.2s41.4-15.8 57.2 0 15.8 41.4 0 57.2c-7.9 7.9-18.2 11.8-28.6 11.8zm0-77.8c-9.6 0-19.2 3.6-26.5 10.9-14.6 14.6-14.6 38.3 0 52.9s38.3 14.6 52.9 0c14.6-14.6 14.6-38.3 0-52.9-7.2-7.2-16.8-10.9-26.4-10.9zM88.1 97.5H9.4c-5.2 0-9.4-4.2-9.4-9.4V9.4C0 4.2 4.2 0 9.4 0h78.7c5.2 0 9.4 4.2 9.4 9.4v78.7c0 5.2-4.2 9.4-9.4 9.4zM9.4 3C5.8 3 3 5.8 3 9.4v78.7c0 3.5 2.8 6.4 6.4 6.4h78.7c3.5 0 6.4-2.8 6.4-6.4V9.4c0-3.5-2.8-6.4-6.4-6.4H9.4zM11.2 12.7c-.4 0-.8-.1-1.1-.4L2.8 4.9c-.6-.6-.6-1.5 0-2.1.6-.6 1.5-.6 2.1 0l7.4 7.4c.6.6.6 1.5 0 2.1-.4.2-.7.4-1.1.4zM3.9 95c-.4 0-.8-.1-1.1-.4-.6-.6-.6-1.5 0-2.1l7.4-7.3c.6-.6 1.5-.6 2.1 0s.6 1.5 0 2.1L5 94.6c-.3.3-.7.4-1.1.4zM86.3 12.6c-.4 0-.8-.1-1.1-.4-.6-.6-.6-1.5 0-2.1l7.3-7.4c.6-.6 1.5-.6 2.1 0 .6.6.6 1.5 0 2.1l-7.3 7.4c-.2.3-.6.4-1 .4zM93.6 95.1c-.4 0-.8-.1-1.1-.4l-7.3-7.3c-.6-.6-.6-1.5 0-2.1s1.5-.6 2.1 0l7.3 7.3c.6.6.6 1.5 0 2.1-.2.3-.6.4-1 .4z" class="st0"/></g></g></svg>