<svg xmlns="http://www.w3.org/2000/svg" viewBox="0 0 99.8 117" enable-background="new 0 0 99.8 117"><style type="text/css">.st0{fill:#344154;} .st1{fill:none;stroke:#344154;stroke-width:3;stroke-miterlimit:10;}</style><title>fuel</title><g id="Layer_2"><g id="Icon_Set"><path d="M75.6 80c-1.9 0-3.8-.4-5.6-1.2-2.5-1.1-4.5-2.8-6-4.9-1.6 2.3-3.8 4-6.4 5.1-3.5 1.4-7.4 1.4-10.8-.1-2.5-1.1-4.5-2.8-6-4.9-1.6 2.3-3.8 4-6.4 5.1-3.5 1.4-7.4 1.4-10.8-.1-2.5-1.1-4.5-2.8-6-4.9C15 77.7 10.7 80 6 80c-.4 0-.8 0-1.3-.1l.4-3c.2 0 .5 0 .8 0 4.4 0 8.4-2.7 10.2-6.8l1.4-3.2 1.4 3.2c1.1 2.6 3.2 4.7 5.8 5.8 2.7 1.2 5.8 1.2 8.5.1 2.8-1.1 4.9-3.2 6.1-6l1.4-3.2 1.4 3.2c1.1 2.6 3.2 4.7 5.8 5.8 5.6 2.4 12.2-.2 14.6-5.8l1.5-3 1.4 3.2c1.1 2.6 3.2 4.7 5.8 5.8 2.7 1.2 5.8 1.2 8.5.1s4.9-3.2 6.1-6l1.4-3.2 1.4 3.2c1.7 3.9 5.5 6.5 9.7 6.7l-.1 3c-4.4-.2-8.5-2.5-11-6.1-1.6 2.3-3.8 4-6.4 5.1-1.6.9-3.4 1.2-5.2 1.2zM99.8 16.2h-3V6.4c0-1.8-1.5-3.4-3.4-3.4H61.7c-1.8 0-3.4 1.5-3.4 3.4v9.9h-3V6.4c0-3.5 2.8-6.4 6.4-6.4h31.8c3.5 0 6.4 2.8 6.4 6.4v9.8zM94.1 17.8h-33V8.2c0-1.4 1.1-2.5 2.5-2.5h28c1.4 0 2.5 1.1 2.5 2.5v9.6zm-30-3h27v-6h-27v6zM13.4 42.1L3.1 31.8l14.5-14.5L28 27.7 13.4 42.1zM7.3 31.8l6.1 6.1 10.2-10.2-6.1-6.1L7.3 31.8zM0 26.6l12.38-12.36 2.12 2.12L2.12 28.74z" class="st0"/><path d="M60.4 16.2M91.3 16.2" class="st1"/><path d="M99.8 117H3.4V48.1l33.4-33.3h21.7v3H38L6.4 49.4V114h90.4V16.2h3z" class="st0"/></g></g></svg>