<svg xmlns="http://www.w3.org/2000/svg" viewBox="0 0 79.4 114.3" enable-background="new 0 0 79.4 114.3"><style type="text/css">.st0{fill:#344154;}</style><title>fuel2</title><g id="Layer_2"><g id="Icon_Set"><path d="M2.3 98.1c-.8 0-1.5-.7-1.5-1.5s.7-1.5 1.5-1.5c3.5 0 6.7-2.1 8.1-5.4l1.4-3.2 1.4 3.2c.9 2.1 2.5 3.7 4.6 4.6 4.5 1.9 9.7-.1 11.7-4.6l1.4-3.2 1.4 3.2c.9 2.1 2.5 3.7 4.6 4.6 2.2.9 4.6 1 6.8.1s3.9-2.5 4.9-4.7l1.4-3.2 1.4 3.2c.9 2.1 2.5 3.7 4.6 4.6 2.2.9 4.6 1 6.8.1s3.9-2.5 4.9-4.7l1.4-3.2 1.4 3.2c1.3 3.1 4.4 5.2 7.7 5.4.8 0 1.5.7 1.4 1.6 0 .8-.7 1.5-1.6 1.4-3.6-.2-6.9-2-9-4.8-3.2 4.3-9.1 6-14.2 3.8-1.9-.8-3.5-2.1-4.8-3.8-1.3 1.8-3.1 3.1-5.2 3.9-2.9 1.2-6.2 1.1-9.1-.2-1.9-.8-3.5-2.1-4.8-3.8-3.2 4.3-9.1 6-14.2 3.8-1.9-.8-3.5-2.1-4.8-3.8-2.2 3.1-5.8 4.9-9.6 4.9zM79.4 114.3H0V12.9c0-.8.7-1.5 1.5-1.5s1.5.7 1.5 1.5v98.4h73.4V39.5c0-5.4-4.4-9.7-9.7-9.7H15.2c-.8 0-1.5-.7-1.5-1.5s.7-1.5 1.5-1.5h51.4c7 0 12.7 5.7 12.7 12.7v74.8zM22.3 29.8c-.8 0-1.5-.7-1.5-1.5V12.1c0-1.1-.9-2-2-2H3v2.8c0 .8-.7 1.5-1.5 1.5S0 13.7 0 12.9V7.1h18.8c2.8 0 5 2.2 5 5v16.2c0 .8-.7 1.5-1.5 1.5zM16.8 10.1H0V3.8C0 1.7 1.7 0 3.8 0h9.1c2.1 0 3.8 1.7 3.8 3.8v6.3zM3 7.1h10.8V3.8c0-.4-.4-.8-.8-.8H3.8c-.4 0-.8.4-.8.8v3.3zM39.7 78.9c-.2 0-.5 0-.7 0-2.7-.2-5.1-1.4-6.9-3.4-1.7-2-2.6-4.6-2.4-7.2.1-5.1 7.9-16 8.8-17.2l1.2-1.7 1.2 1.7c.9 1.2 8.8 12.2 8.8 17.2v1.5h-.1c-.2 2.6-1.4 4.9-3.4 6.6-1.8 1.7-4.1 2.5-6.5 2.5zm0-24.3c-3.1 4.5-7 11.1-7 13.8v.1c-.1 1.9.5 3.7 1.7 5.1 1.2 1.4 2.9 2.3 4.8 2.4 1.9.1 3.7-.5 5.1-1.7 1.4-1.2 2.3-2.9 2.4-4.8 0-.3 0-.6 0-1l-.1-1c-.6-3.1-4.1-8.9-6.9-12.9zM77.9 44.9c-.8 0-1.5-.7-1.5-1.5V23.8c0-4.2-3.4-7.7-7.7-7.7H48v6.8c0 .8-.7 1.5-1.5 1.5s-1.5-.7-1.5-1.5v-9.8h23.7c5.9 0 10.7 4.8 10.7 10.7v19.6c0 .8-.7 1.5-1.5 1.5z" class="st0"/></g></g></svg>