<svg xmlns="http://www.w3.org/2000/svg" viewBox="0 0 120.5 110" enable-background="new 0 0 120.5 110"><style type="text/css">.st0{fill:#344154;}</style><title>fulltime</title><g id="Layer_2"><g id="Icon_Set"><path d="M37.5 84.4H18.4c-.8 0-1.5-.7-1.5-1.5s.7-1.5 1.5-1.5h16.1v-1.6c0-2.4-1.8-4.4-4.1-4.7l-11.6-1.7c-.8-.1-1.4-.9-1.3-1.7s.9-1.4 1.7-1.3l11.6 1.7c3.8.6 6.7 3.9 6.7 7.7v4.6zM102.9 110h-4.1c-4.9 0-8.9-4-8.9-8.9v-2.6H30.6v2.6c0 4.9-4 8.9-8.9 8.9h-4.1c-4.9 0-8.9-4-8.9-8.9V67.9l-6.6-2.4C.9 65 0 63.8 0 62.4v-6c0-1.8 1.5-3.3 3.3-3.3h8.6c1.9 0 3.6-1 4.5-2.7l8.5-15.6c1.9-3.6 5.6-5.8 9.7-5.8h4.1v3h-4.1c-2.9 0-5.6 1.6-7 4.2L19 51.9c-1.4 2.6-4.2 4.2-7.2 4.3H3.3c-.2 0-.3.1-.3.3v6c0 .1.1.2.2.3l8.6 3.1v35.2c0 3.2 2.6 5.9 5.9 5.9h4.1c3.2 0 5.9-2.6 5.9-5.9v-5.6h65.2v5.6c0 3.2 2.6 5.9 5.9 5.9h4.1c3.2 0 5.9-2.6 5.9-5.9V65.8l8.6-3.1c.1 0 .2-.2.2-.3v-6c0-.2-.1-.3-.3-.3h-8.6c-3 0-5.7-1.6-7.2-4.3L93 36.2c-1.4-2.6-4.1-4.2-7-4.2h-4.1v-3H86c4 0 7.8 2.2 9.7 5.8l8.5 15.7c.9 1.7 2.6 2.7 4.5 2.7h8.6c1.8 0 3.3 1.5 3.3 3.3v6c0 1.4-.9 2.6-2.2 3.1l-6.6 2.4v33.2c-.1 4.8-4 8.8-8.9 8.8zM97 56.2H23.5l9.2-16.8c.7-1.3 2.1-2.1 3.6-2.1h7v3h-7c-.4 0-.8.2-.9.6l-6.8 12.4H92l-6.8-12.4c-.2-.4-.6-.6-1-.6h-7v-3h7c1.5 0 2.9.8 3.6 2.1L97 56.2zM102.1 84.4H83v-4.6c0-3.8 2.9-7.1 6.7-7.7l11.6-1.7c.8-.1 1.6.4 1.7 1.3.1.8-.4 1.6-1.3 1.7l-11.6 1.7c-2.3.3-4.1 2.4-4.1 4.7v1.6h16.1c.8 0 1.5.7 1.5 1.5s-.7 1.5-1.5 1.5zM73.1 84.7H47.4c-.8 0-1.5-.7-1.5-1.5s.7-1.5 1.5-1.5h25.8c.8 0 1.5.7 1.5 1.5s-.7 1.5-1.6 1.5zM47.4 84.7c-.8 0-1.4-.6-1.5-1.3l-1.4-11.9H76l-1.4 11.9c-.1.8-.8 1.4-1.7 1.3-.8-.1-1.4-.8-1.3-1.7l1-8.5H47.9l1 8.5c.1.8-.5 1.6-1.3 1.7-.1 0-.2 0-.2 0zM29.1 98.5h-7.7c-.8 0-1.5-.7-1.5-1.5s.7-1.5 1.5-1.5h7.7c.8 0 1.5.7 1.5 1.5s-.6 1.5-1.5 1.5zM99.1 98.5h-7.7c-.8 0-1.5-.7-1.5-1.5s.7-1.5 1.5-1.5h7.7c.8 0 1.5.7 1.5 1.5s-.7 1.5-1.5 1.5zM60.2 48c-13.2 0-24-10.8-24-24S47 0 60.2 0s24 10.8 24 24-10.7 24-24 24zm0-45c-11.6 0-21 9.4-21 21s9.4 21 21 21 21-9.4 21-21-9.4-21-21-21zM53.2 31.2H46v-4.8c0-2 1.6-3.6 3.6-3.6.7 0 1.2-.5 1.2-1.2v-1.2c0-.7-.5-1.2-1.2-1.2s-1.2.5-1.2 1.2H46c0-2 1.6-3.6 3.6-3.6s3.6 1.6 3.6 3.6v1.2c0 2-1.6 3.6-3.6 3.6-.7 0-1.2.5-1.2 1.2v1.8c0 .3.2.6.4.6 0 0 .1 0 .2 0h4.2v2.4zM61.7 31.2h-2.4v-4.8h-4.8V24l3.6-7.2h3.6v14.4zm-2.4-7.8v-4.2L57 24h1.8c.3 0 .6-.2.6-.5-.1 0-.1 0-.1-.1zM74.4 31.2H72V24c0-.7-.5-1.2-1.2-1.2s-1.2.5-1.2 1.2v7.2h-2.4V16.8h2.4v3.8c.4-.1.8-.2 1.2-.2 2 0 3.6 1.6 3.6 3.6v7.2z" class="st0"/></g></g></svg>