<svg xmlns="http://www.w3.org/2000/svg" viewBox="0 0 46.7 129.2" enable-background="new 0 0 46.7 129.2"><style type="text/css">.st0{fill:#344154;}</style><title>machine</title><g id="Layer_2"><g id="Icon_Set"><path d="M43.7 47.8H3c-1.7 0-3-1.4-3-3V24.4c0-1.6 1.3-3 3-3h40.7c1.7 0 3 1.4 3 3v20.3c.1 1.7-1.3 3.1-3 3.1zM3 24.4v20.4h40.7V24.4H3zM43.7 14.2H3c-1.7 0-3-1.4-3-3V3c0-1.7 1.4-3 3-3h40.7c1.7 0 3 1.4 3 3v8.2c0 1.7-1.3 3-3 3zM3 3v8.2h40.7V3H3zM41.1 24.4H5.6V11.2h35.5v13.2zm-32.5-3h29.5v-7.2H8.6v7.2zM23.4 42c-4.1 0-7.4-3.3-7.4-7.4s3.3-7.4 7.4-7.4c4.1 0 7.4 3.3 7.4 7.4S27.4 42 23.4 42zm0-11.8c-2.4 0-4.4 2-4.4 4.4s2 4.4 4.4 4.4 4.4-2 4.4-4.4-2-4.4-4.4-4.4zM23.4 129.2c-9.8 0-17.7-8-17.7-17.7s8-17.7 17.7-17.7 17.7 8 17.7 17.7-8 17.7-17.7 17.7zm0-32.5c-8.1 0-14.7 6.6-14.7 14.7s6.6 14.7 14.7 14.7 14.7-6.6 14.7-14.7-6.6-14.7-14.7-14.7zM23.4 118.8c-4.1 0-7.4-3.3-7.4-7.3s3.3-7.4 7.4-7.4 7.3 3.3 7.3 7.4-3.3 7.3-7.3 7.3zm0-11.7c-2.4 0-4.4 2-4.4 4.4s2 4.3 4.4 4.3 4.3-2 4.3-4.3-1.9-4.4-4.3-4.4zM12.5 8.6h-11C.7 8.6 0 7.9 0 7.1s.7-1.5 1.5-1.5h11c.8 0 1.5.7 1.5 1.5s-.7 1.5-1.5 1.5zM45.2 8.6h-11c-.8 0-1.5-.7-1.5-1.5s.7-1.5 1.5-1.5h11c.8 0 1.5.7 1.5 1.5s-.6 1.5-1.5 1.5zM35 93.8l-2.4-1.2c-2.9-1.4-6.1-2.2-9.2-2.2-3.2 0-6.4.8-9.2 2.2l-2.4 1.2 4.4-49h14.6l4.2 49zm-11.6-6.4c2.8 0 5.6.5 8.2 1.5l-3.7-41.1h-9.1l-3.7 41.1c2.7-1 5.5-1.5 8.3-1.5z" class="st0"/></g></g></svg>