<svg xmlns="http://www.w3.org/2000/svg" viewBox="0 0 113.8 104.7" enable-background="new 0 0 113.8 104.7"><style type="text/css">.st0{fill:#344154;}</style><title>meter</title><g id="Layer_2"><g id="Icon_Set"><path d="M56.9 104.7c-26.4 0-47.8-21.4-47.8-47.8S30.5 9.1 56.9 9.1s47.8 21.4 47.8 47.8c0 26.3-21.5 47.8-47.8 47.8zm0-92.6c-24.7 0-44.8 20.1-44.8 44.8 0 24.7 20.1 44.8 44.8 44.8 24.7 0 44.8-20.1 44.8-44.8 0-24.7-20.1-44.8-44.8-44.8zM112.2 58.4c-.8 0-1.5-.7-1.5-1.5-.3-29.5-24.4-53.2-53.8-53.2-.2 0-.5 0-.7 0-14.2.2-27.4 5.8-37.4 15.8S3.2 42.8 3 56.9c0 .8-.7 1.5-1.5 1.5S0 57.7 0 56.9c.2-14.9 6.1-29 16.7-39.5S41.2.9 56.1.7c31.4-.4 57.2 24.8 57.6 56.1.1.9-.6 1.6-1.5 1.6.1 0 .1 0 0 0zM56.9 63c-3.3 0-6.1-2.7-6.1-6.1 0-3.3 2.7-6.1 6.1-6.1 3.3 0 6.1 2.7 6.1 6.1 0 3.3-2.8 6.1-6.1 6.1zm0-9.2c-1.7 0-3.1 1.4-3.1 3.1 0 1.7 1.4 3.1 3.1 3.1 1.7 0 3.1-1.4 3.1-3.1 0-1.7-1.4-3.1-3.1-3.1zM56.9 26.1c-.8 0-1.5-.7-1.5-1.5v-7c0-.8.7-1.5 1.5-1.5s1.5.7 1.5 1.5v7c0 .8-.7 1.5-1.5 1.5zM46.9 27.7c-.6 0-1.2-.4-1.4-1L43.3 20c-.3-.8.2-1.6 1-1.9.8-.3 1.6.2 1.9 1l2.2 6.7c.3.8-.2 1.6-1 1.9-.2-.1-.4 0-.5 0zM37.9 32.2c-.5 0-.9-.2-1.2-.6L32.6 26c-.5-.7-.3-1.6.3-2.1.7-.5 1.6-.3 2.1.3l4.1 5.7c.5.7.3 1.6-.3 2.1-.3.1-.6.2-.9.2zM30.7 39.4c-.3 0-.6-.1-.9-.3L24.2 35c-.7-.5-.8-1.4-.3-2.1.5-.7 1.4-.8 2.1-.3l5.7 4.1c.7.5.8 1.4.3 2.1-.3.4-.8.6-1.3.6zM26.2 48.4c-.2 0-.3 0-.5-.1L19 46.2c-.8-.3-1.2-1.1-1-1.9.3-.8 1.1-1.2 1.9-1l6.6 2.2c.8.3 1.2 1.1 1 1.9-.1.6-.7 1-1.3 1zM24.6 58.4h-7c-.8 0-1.5-.7-1.5-1.5s.7-1.5 1.5-1.5h7c.8 0 1.5.7 1.5 1.5s-.7 1.5-1.5 1.5zM19.5 70.5c-.6 0-1.2-.4-1.4-1-.3-.8.2-1.6 1-1.9l6.6-2.2c.8-.3 1.6.2 1.9 1 .3.8-.2 1.6-1 1.9L20 70.4c-.2.1-.3.1-.5.1zM25.1 81.5c-.5 0-.9-.2-1.2-.6-.5-.7-.3-1.6.3-2.1l5.7-4.1c.7-.5 1.6-.3 2.1.3.5.7.3 1.6-.3 2.1L26 81.2c-.3.2-.6.3-.9.3zM88.7 81.5c-.3 0-.6-.1-.9-.3l-5.7-4.1c-.7-.5-.8-1.4-.3-2.1.5-.7 1.4-.8 2.1-.3l5.7 4.1c.7.5.8 1.4.3 2.1-.3.4-.8.6-1.2.6zM94.3 70.5c-.2 0-.3 0-.5-.1l-6.7-2.2c-.8-.3-1.2-1.1-1-1.9.3-.8 1.1-1.2 1.9-1l6.7 2.2c.8.3 1.2 1.1 1 1.9-.2.7-.8 1.1-1.4 1.1zM96.2 58.4h-7c-.8 0-1.5-.7-1.5-1.5s.7-1.5 1.5-1.5h7c.8 0 1.5.7 1.5 1.5s-.7 1.5-1.5 1.5zM87.6 48.4c-.6 0-1.2-.4-1.4-1-.3-.8.2-1.6 1-1.9l6.7-2.2c.8-.3 1.6.2 1.9 1s-.2 1.6-1 1.9l-6.7 2.2c-.2 0-.3 0-.5 0zM83 39.4c-.5 0-.9-.2-1.2-.6-.5-.7-.3-1.6.3-2.1l5.7-4.1c.7-.5 1.6-.3 2.1.3.5.7.3 1.6-.3 2.1l-5.7 4.1c-.3.2-.6.3-.9.3zM75.9 32.2c-.3 0-.6-.1-.9-.3-.7-.5-.8-1.4-.3-2.1l4.1-5.7c.5-.7 1.4-.8 2.1-.3.7.5.8 1.4.3 2.1l-4.1 5.7c-.3.4-.8.6-1.2.6zM66.9 27.7c-.2 0-.3 0-.5-.1-.8-.3-1.2-1.1-1-1.9l2.2-6.7c.3-.8 1.1-1.2 1.9-1 .8.3 1.2 1.1 1 1.9l-2.2 6.7c-.2.7-.8 1.1-1.4 1.1zM56.9 53.8c-.8 0-1.5-.7-1.5-1.5V33.8c0-.8.7-1.5 1.5-1.5s1.5.7 1.5 1.5v18.5c0 .8-.7 1.5-1.5 1.5zM56.9 67.3c-2.7 0-5.3-1-7.3-3-.6-.6-.6-1.5 0-2.1.6-.6 1.5-.6 2.1 0 2.9 2.9 7.6 2.9 10.4 0 .6-.6 1.5-.6 2.1 0s.6 1.5 0 2.1c-2 1.9-4.7 3-7.3 3zM72.4 91.7h-31V75.5h31v16.2zm-28-3h25V78.5h-25v10.2zM48.7 82.1h3v3h-3zM55.4 82.1h3v3h-3zM62.1 82.1h3v3h-3z" class="st0"/></g></g></svg>