<svg xmlns="http://www.w3.org/2000/svg" viewBox="0 0 132.8 107" enable-background="new 0 0 132.8 107"><style type="text/css">.st0{fill:#344154;}</style><title>money</title><g id="Layer_2"><g id="Icon_Set"><path d="M117.3 73H76.8c-.8 0-1.5-.7-1.5-1.5S76 70 76.8 70h40.5c.8 0 1.5.7 1.5 1.5s-.6 1.5-1.5 1.5zM60.6 20.5H28.4L15.4 8l5.2-5.2c3.7-3.7 9.6-3.7 13.3 0L36.1 5l.4-.4C40.9.2 48 .2 52.4 4.6l.5.4 2.3-2.3c3.7-3.7 9.6-3.7 13.3 0l5.2 5.2-13.1 12.6zm-31-3h29.8l9.9-9.6-3-3c-2.5-2.5-6.6-2.5-9 0l-4.4 4.4-2.5-2.5c-3.2-3.2-8.5-3.2-11.7 0l-2.5 2.5-4.4-4.4c-2.5-2.5-6.6-2.5-9 0l-3 3 9.8 9.6zM121.9 107h-2.4c-3.2 0-5.8-2.6-5.8-5.8v-3.5H80.4v3.5c0 3.2-2.6 5.8-5.8 5.8h-2.4c-3.2 0-5.8-2.6-5.8-5.8V79.7L63 78.4c-1-.3-1.7-1.4-1.7-2.5v-3.4c0-1.4 1.1-2.5 2.5-2.5h5c.9 0 1.7-.5 2.1-1.2l5-9.1c1.2-2.3 3.6-3.7 6.2-3.7H112c2.6 0 5 1.4 6.2 3.7l5 9.1c.4.8 1.2 1.2 2.1 1.2h5c1.4 0 2.5 1.1 2.5 2.5V76c.1 1-.7 2.1-1.7 2.4l-3.4 1.2v21.5c0 3.3-2.6 5.9-5.8 5.9zM77.4 94.7h39.3v6.5c0 1.5 1.3 2.8 2.8 2.8h2.4c1.5 0 2.8-1.3 2.8-2.8V77.6l5.1-1.9V73h-4.5c-2 0-3.8-1.1-4.7-2.8l-5-9.1c-.7-1.3-2.1-2.1-3.6-2.1H82.1c-1.5 0-2.9.8-3.6 2.1l-5 9.1c-1 1.7-2.8 2.8-4.7 2.8h-4.5v2.7l5.1 1.9v23.6c0 1.5 1.3 2.8 2.8 2.8h2.4c1.5 0 2.8-1.3 2.8-2.8v-6.5zM129.8 76s0 .1 0 0zm-65.5 0zm65.8-.4zm-66.1 0zM84.4 89.5H72.7c-.8 0-1.5-.7-1.5-1.5s.7-1.5 1.5-1.5h8.8v-.3c0-1.1-.8-2-1.8-2.1l-6.8-1c-.8-.1-1.4-.9-1.3-1.7.1-.8.9-1.4 1.7-1.3l6.8 1c2.5.4 4.4 2.6 4.4 5.1v3.3zM121.5 89.5h-11.8v-3.3c0-2.5 1.9-4.7 4.4-5.1l6.7-1c.8-.1 1.6.4 1.7 1.3.1.8-.4 1.6-1.3 1.7l-6.8 1c-1.1.2-1.8 1.1-1.8 2.1v.3h8.8c.8 0 1.5.7 1.5 1.5s-.6 1.5-1.4 1.5zM104.6 89.6h-15c-.8 0-1.5-.7-1.5-1.5s.7-1.5 1.5-1.5h15c.8 0 1.5.7 1.5 1.5s-.7 1.5-1.5 1.5zM104.6 89.6c-.1 0-.1 0-.2 0-.8-.1-1.4-.8-1.3-1.7l.5-4.3h-13L91 88c.1.8-.5 1.6-1.3 1.7-.8.1-1.6-.5-1.7-1.3l-.9-7.6h19.8l-.9 7.6c0 .7-.7 1.2-1.4 1.2zM78.9 97.7h-4.5c-.8 0-1.5-.7-1.5-1.5s.7-1.5 1.5-1.5h4.5c.8 0 1.5.7 1.5 1.5s-.7 1.5-1.5 1.5zM121 97.7h-5.8c-.8 0-1.5-.7-1.5-1.5s.7-1.5 1.5-1.5h5.8c.8 0 1.5.7 1.5 1.5s-.7 1.5-1.5 1.5zM78.9 97.7h-5.8c-.8 0-1.5-.7-1.5-1.5s.7-1.5 1.5-1.5h5.8c.8 0 1.5.7 1.5 1.5s-.7 1.5-1.5 1.5zM41.8 81.1c-.8-.1-1.6-.2-2.4-.4-.7-.2-1.4-.4-2-.7v-3.8c.9.4 1.9.7 2.9.9 1 .3 2.1.4 3.2.4 1.4.1 2.8-.4 3.8-1.3 1-.8 1.5-2.1 1.5-3.3 0-.8-.1-1.5-.4-2.2-.4-.7-.8-1.3-1.3-1.7-1-.7-2.1-1.3-3.3-1.8l-2.4-1.1c-1.7-.7-3.2-1.9-4.3-3.4-.8-1.4-1.3-3-1.2-4.7 0-1.8.6-3.6 1.8-5 1.1-1.2 2.5-2.1 4.1-2.5v-3.4h3.9v3.2c1.5.1 3 .5 4.4 1.3v3.8c-.8-.5-1.6-.9-2.5-1.1-1-.3-2-.5-3.1-.5-1.2-.1-2.4.4-3.3 1.2-.8.8-1.2 1.9-1.2 3 0 .7.1 1.5.5 2.1.3.6.7 1.2 1.2 1.6 1 .7 2 1.3 3.1 1.8l1.9.9c1.8.8 3.5 2 4.7 3.6 1 1.6 1.6 3.6 1.5 5.5 0 1.8-.7 3.6-2 4.9-1.3 1.4-3.1 2.3-5 2.6v3.5h-4l-.1-3.4zM73.1 107H44.3c-16.7 0-28.8-3.8-36.2-11.2C2.7 90.3-.1 82.9 0 73.9c.1-9.4 3.2-18.3 8.8-25.8l17.7-23.7h34.9v3H28L11.2 49.9c-5.2 7-8.1 15.3-8.2 24-.1 8.2 2.4 14.9 7.2 19.8C17 100.5 28.5 104 44.3 104h28.8v3zM82.8 58c-1.3-2.9-2.9-5.6-4.7-8.1L60.8 26.8l2.4-1.8 17.2 23.1c2 2.7 3.7 5.6 5.1 8.7L82.8 58zM62.5 27.4H26.1c-2.2 0-3.9-1.8-3.9-3.9v-2c0-2.2 1.8-3.9 3.9-3.9h36.5c2.2 0 3.9 1.8 3.9 3.9v2c0 2.2-1.8 3.9-4 3.9zm-36.4-6.9c-.5 0-.9.4-.9.9v2c0 .5.4.9.9.9h36.5c.5 0 .9-.4.9-.9v-2c0-.5-.4-.9-.9-.9H26.1zM60.6 20.5H28.4L15.4 8l5.2-5.2c3.7-3.7 9.6-3.7 13.3 0L36.1 5l.4-.4C40.9.2 48 .2 52.4 4.6l.5.4 2.3-2.3c3.7-3.7 9.6-3.7 13.3 0l5.2 5.2-13.1 12.6zm-31-3h29.8l9.9-9.6-3-3c-2.5-2.5-6.6-2.5-9 0l-4.4 4.4-2.5-2.5c-3.2-3.2-8.5-3.2-11.7 0l-2.5 2.5-4.4-4.4c-2.5-2.5-6.6-2.5-9 0l-3 3 9.8 9.6z" class="st0"/></g></g></svg>