<svg xmlns="http://www.w3.org/2000/svg" viewBox="0 0 124.4 85.9" enable-background="new 0 0 124.4 85.9"><style type="text/css">.st0{fill:#344154;}</style><title>paint</title><g id="Layer_2"><g id="Icon_Set"><path d="M106.4 33.1l-21.2-2.4V2.5L106.4 0v33.1zM88.2 28l15.2 1.8V3.4L88.2 5.1V28zM104.9 18.3H94.2c-.8 0-1.5-.7-1.5-1.5s.7-1.5 1.5-1.5H105c.8 0 1.5.7 1.5 1.5s-.8 1.5-1.6 1.5zM104.9 10.6h-7.1c-.8 0-1.5-.7-1.5-1.5s.7-1.5 1.5-1.5h7.1c.8 0 1.5.7 1.5 1.5s-.7 1.5-1.5 1.5zM104.9 25.1h-6.8c-.8 0-1.5-.7-1.5-1.5s.7-1.5 1.5-1.5h6.8c.8 0 1.5.7 1.5 1.5s-.7 1.5-1.5 1.5zM86.7 30.8h-7c-4.8 0-8.7-3.9-8.7-8.7V11c0-4.8 3.9-8.7 8.7-8.7h7v3h-7C76.6 5.3 74 7.8 74 11v11.1c0 3.1 2.6 5.7 5.7 5.7h7v3zM21.5 28.4c-1.6 0-3.2-.3-4.7-1-2.9-1.3-5.2-3.6-6.3-6.6-1.2-3-1.1-6.2.2-9.1 1.3-2.9 3.6-5.2 6.6-6.3 3-1.2 6.2-1.1 9.1.2C32 8 38.3 10.8 44.6 10.8H74v11.5H45.2c-5.5 0-11.6 1.6-18.5 5-1.7.7-3.5 1.1-5.2 1.1zm0-20.8c-1.1 0-2.2.2-3.3.6-2.2.9-4 2.6-4.9 4.7-.9 2.2-1 4.6-.1 6.8s2.6 4 4.7 4.9c2.4 1 5.1 1 7.4-.1 7.3-3.5 13.8-5.2 19.8-5.2H71v-5.5H44.4c-6.9 0-13.5-2.9-19.4-5.4-1.1-.5-2.3-.8-3.5-.8zM21.5 21.7c-2.9 0-5.2-2.3-5.2-5.2 0-2.9 2.3-5.2 5.2-5.2s5.2 2.3 5.2 5.2c0 2.9-2.3 5.2-5.2 5.2zm0-7.4c-1.2 0-2.2 1-2.2 2.2s1 2.2 2.2 2.2 2.2-1 2.2-2.2-1-2.2-2.2-2.2z" class="st0"/><path id="_Path_" d="M104 85.9c-4.2 0-7.6-3.4-7.6-7.6 0-4.2 3.4-7.6 7.6-7.6 4.2 0 7.6 3.4 7.6 7.6 0 4.2-3.4 7.6-7.6 7.6zm0-12.2c-2.5 0-4.6 2.1-4.6 4.6 0 2.5 2.1 4.6 4.6 4.6 2.5 0 4.6-2.1 4.6-4.6 0-2.6-2.1-4.6-4.6-4.6z" class="st0"/><path id="_Path_2" d="M26.7 85.9c-4.2 0-7.6-3.4-7.6-7.6 0-4.2 3.4-7.6 7.6-7.6 4.2 0 7.6 3.4 7.6 7.6 0 4.2-3.4 7.6-7.6 7.6zm0-12.2c-2.5 0-4.6 2.1-4.6 4.6 0 2.5 2.1 4.6 4.6 4.6 2.5 0 4.6-2.1 4.6-4.6 0-2.6-2.1-4.6-4.6-4.6z" class="st0"/><path id="_Path_3" d="M121.4 82.6h-8.2l.5-1.9c.4-1.6.4-3.3 0-4.9-1.3-5.3-6.8-8.6-12.1-7.2-2.6.6-4.8 2.3-6.1 4.5s-1.8 5-1.1 7.5l.5 1.9h-59l.5-1.9c.4-1.6.4-3.3 0-4.9-1.3-5.3-6.8-8.6-12.1-7.2-2.6.6-4.8 2.3-6.1 4.5-1.4 2.3-1.8 5-1.1 7.5l.5 1.9H9.1C1.9 82.6 0 75.2 0 71.3c0-3 .9-5.8 2.5-8.3v-4.2c0-.1 0-.1 0-.2.1-1.5 1.4-2.7 3-2.6 5.1.2 10.1-1.2 14.4-3.8 7.7-4.4 16.5-6.7 25.3-6.6h13.3c4.8 0 9.6 1.1 13.9 3.3L82.8 54c4 2 8.3 3.1 12.8 3.4 12.9.7 20 3.2 23 4.6 1.4.6 2.2 2.1 2.1 3.6v2.7l2 1.3c1.1.8 1.8 2.1 1.7 3.4l.1 6.6c0 .8-.3 1.6-.9 2.2-.6.4-1.4.8-2.2.8zm-4.5-3h4.5l-.1-6.8v-.1c0-.3-.1-.6-.4-.8l-3.3-2.1v-4.5c0-.3-.1-.5-.4-.7-2.9-1.3-9.6-3.6-22-4.3-4.9-.3-9.6-1.5-13.9-3.7L71 51.5c-3.9-1.9-8.2-3-12.5-3H45.2c-8.3 0-16.5 2.1-23.8 6.2-4.8 2.9-10.3 4.4-16 4.3v4.9l-.3.4c-1.4 2.1-2.2 4.5-2.2 7 0 .3.1 8.3 6.1 8.3h4.7c-.3-2.8.3-5.5 1.8-7.9 1.8-3 4.6-5.1 8-5.9 6.9-1.7 14 2.5 15.7 9.4.4 1.5.5 3 .3 4.4H91c-.3-2.8.3-5.5 1.8-7.9 1.8-3 4.6-5.1 8-5.9 6.9-1.7 14 2.5 15.7 9.4.4 1.4.5 2.9.4 4.4zM5.3 58.9z" class="st0"/><path d="M15.7 57.3c-.4 0-.8-.1-1.1-.4l-4.2-4.2H4.1c-.8 0-1.5-.7-1.5-1.5s.7-1.5 1.5-1.5h7.6l5 5c.6.6.6 1.5 0 2.1-.2.3-.6.5-1 .5zM53.5 47h3v34.1h-3z" class="st0"/></g></g></svg>