<svg xmlns="http://www.w3.org/2000/svg" viewBox="0 0 108.9 106.7" enable-background="new 0 0 108.9 106.7"><style type="text/css">.st0{fill:#344154;}</style><title>service2</title><g id="Layer_2"><g id="Icon_Set"><path d="M34.1 50.2H16.7c-.8 0-1.5-.7-1.5-1.5s.7-1.5 1.5-1.5h14.4v-1.3c0-2-1.5-3.8-3.6-4.1l-10.4-1.5c-.8-.1-1.4-.9-1.3-1.7.1-.8.9-1.4 1.7-1.3L28 38.9c3.5.5 6.1 3.6 6.1 7.1v4.2zM92.8 77.2h-3.7c-4.5 0-8.1-3.7-8.1-8.2v-6.2H27.9V69c0 4.5-3.7 8.2-8.1 8.2H16c-4.5 0-8.1-3.7-8.1-8.2V35.3L2 33.2c-1.2-.5-2-1.6-2-2.9v-5.4c0-1.7 1.4-3.1 3.1-3.1h7.7c1.6 0 3.2-.9 4-2.3l7.7-14.1C24.2 2 27.6 0 31.3 0h46.2c3.7 0 7.1 2 8.9 5.3l7.7 14.1c.8 1.5 2.3 2.3 4 2.3h7.7c1.7 0 3.1 1.4 3.1 3.1v5.4c0 1.3-.8 2.5-2 2.9l-5.8 2.1V69c-.1 4.6-3.8 8.2-8.3 8.2zM3.1 24.7c-.1 0-.1.1-.1.1v5.4s0 .1.1.1l7.8 2.8V69c0 2.8 2.3 5.1 5.1 5.2h3.7c2.8 0 5.1-2.3 5.1-5.2v-9.2H84V69c0 2.8 2.3 5.2 5.1 5.2h3.7c2.8 0 5.2-2.3 5.2-5.2V33.2l7.8-2.8s.1-.1.1-.1v-5.4c0-.1-.1-.1-.1-.1h-7.7c-2.7 0-5.3-1.5-6.6-3.9L83.8 6.7C82.5 4.4 80.2 3 77.6 3H31.3c-2.6 0-5 1.4-6.2 3.7l-7.7 14.1c-1.3 2.4-3.8 3.9-6.6 3.9H3.1zM87.8 24.8H21.1l8.4-15.4c.7-1.2 2-2 3.4-2H76c1.4 0 2.7.7 3.4 2l8.4 15.4zm-61.7-3h56.6l-6-10.9c-.2-.3-.5-.4-.8-.4H32.7c-.3 0-.6.2-.7.4l-5.9 10.9zM92.2 50.2H74.8v-4.3c0-3.5 2.6-6.6 6.1-7.1l10.4-1.5c.8-.1 1.6.4 1.7 1.3.1.8-.4 1.6-1.3 1.7l-10.4 1.5c-2 .3-3.6 2.1-3.6 4.1v1.3h14.4c.8 0 1.5.7 1.5 1.5s-.6 1.5-1.4 1.5zM66 50.5H42.8c-.8 0-1.5-.7-1.5-1.5s.7-1.5 1.5-1.5H66c.8 0 1.5.7 1.5 1.5s-.6 1.5-1.5 1.5zM66.1 50.5c-.1 0-.1 0-.2 0-.8-.1-1.4-.8-1.3-1.7l.9-7.5h-22l.9 7.5c.1.8-.5 1.6-1.3 1.7-.8.1-1.6-.5-1.7-1.3l-1.3-10.9h28.7l-1.3 10.9c0 .7-.7 1.3-1.4 1.3zM26.4 62.9h-6.9c-.8 0-1.5-.7-1.5-1.5s.7-1.5 1.5-1.5h6.9c.8 0 1.5.7 1.5 1.5s-.7 1.5-1.5 1.5zM91.4 62.9h-9c-.8 0-1.5-.7-1.5-1.5s.7-1.5 1.5-1.5h9c.8 0 1.5.7 1.5 1.5s-.6 1.5-1.5 1.5zM26.4 62.9h-8.9c-.8 0-1.5-.7-1.5-1.5s.7-1.5 1.5-1.5h8.9c.8 0 1.5.7 1.5 1.5s-.7 1.5-1.5 1.5zM107.4 106.7c-.8 0-1.5-.7-1.5-1.5v-28H79.6c-.6 0-1.1.2-1.5.6-.4.4-.6.9-.6 1.4 0 1.1.9 2 2 2H99c.8 0 1.5.7 1.5 1.5s-.7 1.5-1.5 1.5H79.5c-2.8 0-5-2.2-5-5s2.3-5 5-5c0 0 0 0 .1 0h29.3v30.9c0 .9-.7 1.6-1.5 1.6zM1.5 106.7c-.8 0-1.5-.7-1.5-1.5v-31h29.3c2.8 0 5 2.2 5 5s-2.2 5-5 5H9.9c-.8 0-1.5-.7-1.5-1.5s.7-1.5 1.5-1.5h19.5c1.1 0 2-.9 2-2s-.9-2-2-2H3v27.9c0 .9-.7 1.6-1.5 1.6z" class="st0"/></g></g></svg>