<svg xmlns="http://www.w3.org/2000/svg" viewBox="0 0 96.9 107" enable-background="new 0 0 96.9 107"><style type="text/css">.st0{fill:#344154;}</style><title>signal2</title><g id="Layer_2"><g id="Icon_Set"><path d="M85.8 107H62.1C56 107 51 102 51 95.9V17.7c0-6.1 5-11.1 11.1-11.1h23.7c6.1 0 11.1 5 11.1 11.1v78.2c0 6.1-4.9 11.1-11.1 11.1zM62.1 9.5c-4.5 0-8.1 3.6-8.1 8.1v78.2c0 4.5 3.6 8.1 8.1 8.1h23.7c4.5 0 8.1-3.6 8.1-8.1V17.7c0-4.5-3.6-8.1-8.1-8.1H62.1zM74.1 39.1l-6.6-6.6c-.5-.5-.5-1.5 0-2.1s1.5-.6 2.1 0l4.5 4.5 4.2-4.2c.6-.6 1.5-.6 2.1 0 .6.6.6 1.5 0 2.1l-6.3 6.3zM74.1 48.1l-6.6-6.6c-.5-.5-.5-1.5 0-2.1s1.5-.6 2.1 0l4.5 4.5 4.2-4.2c.6-.6 1.5-.6 2.1 0s.6 1.5 0 2.1l-6.3 6.3zM74.1 57.1l-6.6-6.6c-.5-.5-.5-1.5 0-2.1s1.5-.6 2.1 0l4.5 4.5 4.2-4.2c.6-.6 1.5-.6 2.1 0 .6.6.6 1.5 0 2.1l-6.3 6.3zM74.1 66.1l-6.6-6.6c-.5-.5-.5-1.5 0-2.1s1.5-.6 2.1 0l4.5 4.5 4.2-4.2c.6-.6 1.5-.6 2.1 0 .6.6.6 1.5 0 2.1l-6.3 6.3zM74.1 75.1l-6.6-6.6c-.5-.5-.5-1.5 0-2.1s1.5-.6 2.1 0l4.5 4.5 4.2-4.2c.6-.6 1.5-.6 2.1 0 .6.6.6 1.5 0 2.1l-6.3 6.3zM74.1 21.1l-6.6-6.6c-.5-.5-.5-1.5 0-2.1s1.5-.6 2.1 0l4.5 4.5 4.2-4.2c.6-.6 1.5-.6 2.1 0 .6.6.6 1.5 0 2.1l-6.3 6.3zM74.1 30.1l-6.6-6.6c-.5-.5-.5-1.5 0-2.1s1.5-.6 2.1 0l4.5 4.5 4.2-4.2c.6-.6 1.5-.6 2.1 0s.6 1.5 0 2.1l-6.3 6.3zM74.1 39.1l-6.6-6.6c-.5-.5-.5-1.5 0-2.1s1.5-.6 2.1 0l4.5 4.5 4.2-4.2c.6-.6 1.5-.6 2.1 0 .6.6.6 1.5 0 2.1l-6.3 6.3zM74.1 93.1l-6.6-6.6c-.5-.5-.5-1.5 0-2.1s1.5-.6 2.1 0l4.5 4.5 4.2-4.2c.6-.6 1.5-.6 2.1 0 .6.6.6 1.5 0 2.1l-6.3 6.3zM74.1 102.1l-6.6-6.6c-.5-.5-.5-1.5 0-2.1s1.5-.6 2.1 0l4.5 4.5 4.2-4.2c.6-.6 1.5-.6 2.1 0 .6.6.6 1.5 0 2.1l-6.3 6.3zM74.1 84.1l-6.6-6.6c-.5-.5-.5-1.5 0-2.1s1.5-.6 2.1 0l4.5 4.5 4.2-4.2c.6-.6 1.5-.6 2.1 0 .6.6.6 1.5 0 2.1l-6.3 6.3zM74.1 93.1l-6.6-6.6c-.5-.5-.5-1.5 0-2.1s1.5-.6 2.1 0l4.5 4.5 4.2-4.2c.6-.6 1.5-.6 2.1 0 .6.6.6 1.5 0 2.1l-6.3 6.3zM52.5 60.3H32.6c-7.1 0-13-5.8-13-13v-13c0-.8.7-1.5 1.5-1.5s1.5.7 1.5 1.5v13c0 5.5 4.5 10 10 10h19.9c.8 0 1.5.7 1.5 1.5s-.7 1.5-1.5 1.5zM21.2 35.8c-8.1 0-14.6-6.6-14.6-14.6S13.1 6.6 21.2 6.6s14.6 6.6 14.6 14.6-6.5 14.6-14.6 14.6zm0-26.2c-6.4 0-11.6 5.2-11.6 11.6s5.2 11.6 11.6 11.6 11.6-5.2 11.6-11.6S27.6 9.6 21.2 9.6zM40.9 22.7c-.8 0-1.5-.7-1.5-1.5 0-10-8.2-18.2-18.2-18.2S3 11.2 3 21.2c0 .8-.7 1.5-1.5 1.5S0 22 0 21.2C0 9.5 9.5 0 21.2 0s21.2 9.5 21.2 21.2c0 .8-.7 1.5-1.5 1.5zM21.2 22.7c-.8 0-1.5-.7-1.5-1.5V15c0-.8.7-1.5 1.5-1.5s1.5.7 1.5 1.5v6.2c0 .8-.7 1.5-1.5 1.5zM85.8 26.8c-.8 0-1.5-.7-1.5-1.5V8c0-.8.7-1.5 1.5-1.5s1.5.7 1.5 1.5v17.2c0 .9-.7 1.6-1.5 1.6zM62.1 107c-.8 0-1.5-.7-1.5-1.5V88.3c0-.8.7-1.5 1.5-1.5s1.5.7 1.5 1.5v17.2c0 .8-.6 1.5-1.5 1.5z" class="st0"/></g></g></svg>