<svg xmlns="http://www.w3.org/2000/svg" viewBox="0 0 112.3 112.3" enable-background="new 0 0 112.3 112.3"><style type="text/css">.st0{fill:#344154;}</style><title>stearing</title><g id="Layer_2"><g id="Icon_Set"><path d="M56.2 112.3c-15 0-29.1-5.8-39.7-16.5C5.8 85.3 0 71.2 0 56.2s5.8-29.1 16.5-39.7C27.1 5.8 41.2 0 56.2 0c15 0 29.1 5.8 39.7 16.5 21.9 21.9 21.9 57.5 0 79.4-10.6 10.6-24.7 16.4-39.7 16.4zM56.2 3C42 3 28.6 8.5 18.6 18.6 8.5 28.6 3 42 3 56.2s5.5 27.6 15.6 37.6c10 10 23.4 15.6 37.6 15.6 14.2 0 27.6-5.5 37.6-15.6 20.7-20.7 20.7-54.5 0-75.2C83.7 8.5 70.4 3 56.2 3zM56.2 93.2c-9.5 0-18.9-3.6-26.2-10.8-14.4-14.5-14.4-38 0-52.4 7-7 16.3-10.8 26.2-10.8S75.3 23 82.3 30c14.4 14.4 14.4 37.9 0 52.3-7.2 7.2-16.7 10.9-26.1 10.9zm0-71c-9.1 0-17.6 3.5-24 10-13.3 13.3-13.3 34.8 0 48.1 13.3 13.3 34.8 13.3 48.1 0s13.3-34.8 0-48.1c-6.5-6.5-15.1-10-24.1-10zM56.2 66.4c-2.6 0-5.2-1-7.2-3-4-4-4-10.4 0-14.4s10.4-4 14.4 0 4 10.4 0 14.4c-2 2-4.6 3-7.2 3zm0-17.4c-1.8 0-3.7.7-5.1 2.1-2.8 2.8-2.8 7.4 0 10.2 2.8 2.8 7.4 2.8 10.2 0 2.8-2.8 2.8-7.4 0-10.2-1.4-1.4-3.3-2.1-5.1-2.1zM61.6 92.7c-.8 0-1.5-.7-1.5-1.5V76.4c0-9 7.3-16.2 16.2-16.2h14.8c.8 0 1.5.7 1.5 1.5s-.7 1.5-1.5 1.5H76.4c-7.3 0-13.2 5.9-13.2 13.2v14.8c-.1.8-.8 1.5-1.6 1.5zM50.7 92.7c-.8 0-1.5-.7-1.5-1.5V76.4c0-7.3-5.9-13.2-13.2-13.2H21.1c-.8 0-1.5-.7-1.5-1.5s.7-1.5 1.5-1.5H36c8.9 0 16.2 7.3 16.2 16.2v14.8c0 .8-.7 1.5-1.5 1.5zM21.1 52.2c-.8 0-1.5-.7-1.5-1.5s.7-1.5 1.5-1.5H36c7.3 0 13.2-5.9 13.2-13.2V21.1c0-.8.7-1.5 1.5-1.5s1.5.7 1.5 1.5V36c0 8.9-7.3 16.2-16.2 16.2H21.1zM91.2 52.2H76.4c-8.9 0-16.2-7.3-16.2-16.2V21.1c0-.8.7-1.5 1.5-1.5s1.5.7 1.5 1.5V36c0 7.3 6 13.2 13.2 13.2h14.8c.8 0 1.5.7 1.5 1.5s-.7 1.5-1.5 1.5zM101.4 57.1c-.8 0-1.5-.7-1.5-1.5-.3-23.8-19.9-43.1-43.6-43.2-.8 0-1.5-.7-1.5-1.5s.7-1.5 1.5-1.5c25.4.1 46.3 20.8 46.6 46.1 0 .9-.7 1.6-1.5 1.6z" class="st0"/></g></g></svg>