<svg xmlns="http://www.w3.org/2000/svg" viewBox="0 0 118.2 67.1" enable-background="new 0 0 118.2 67.1"><style type="text/css">.st0{fill:#344154;}</style><title>tuning</title><g id="Layer_2"><g id="Icon_Set"><path d="M25.1 53.4h-4.8v13.5h-2.6V53.4H13v-2.1h12.2v2.1zM41.9 51.3v10.3c.1 1.5-.5 3.1-1.7 4.1-1.2 1-2.8 1.5-4.4 1.5-1.6.1-3.1-.5-4.3-1.5-1.1-1-1.8-2.5-1.7-4.1V51.3h2.6v10.3c-.1 1.8 1.2 3.3 2.9 3.4.2 0 .3 0 .5 0 .9 0 1.9-.3 2.5-.9.7-.7 1.1-1.6 1-2.6V51.3h2.6zM60 66.9h-2.6l-6.9-11.2h-.1v11.2h-2.6V51.3h2.6l6.9 11.2h.1V51.3H60v15.6zM69 66.9h-2.6V51.3H69v15.6zM87.6 66.9H85l-6.9-11.2H78v11.2h-2.6V51.3H78l6.9 11.2h.1V51.3h2.6v15.6zM105.3 64.8c-.5.7-1.2 1.3-2.1 1.6-1.1.5-2.4.8-3.6.7-1.7.1-3.3-.6-4.6-1.8-1.2-1.2-1.8-2.9-1.8-4.6v-3.3c-.1-1.7.5-3.4 1.7-4.6 1.2-1.2 2.8-1.8 4.4-1.8 1.5-.1 3.1.4 4.2 1.4 1 .9 1.6 2.2 1.5 3.6v.1h-2.5c0-.8-.3-1.6-.8-2.1-1.5-1.2-3.7-1.1-5 .4-.7.9-1 2-1 3.1v3.3c-.1 1.1.3 2.2 1 3.1.7.8 1.7 1.2 2.8 1.2.7 0 1.4-.1 2-.3.4-.1.8-.4 1.1-.7v-3.2h-3.3v-2h5.9l.1 5.9z" class="st0"/><path id="_Path_" d="M98.8 38.5c-4 0-7.3-3.3-7.3-7.3s3.3-7.3 7.3-7.3 7.3 3.3 7.3 7.3-3.3 7.3-7.3 7.3zm0-11.6c-2.4 0-4.3 1.9-4.3 4.3s1.9 4.3 4.3 4.3 4.3-1.9 4.3-4.3-2-4.3-4.3-4.3z" class="st0"/><path id="_Path_2" d="M25.4 38.5c-4 0-7.3-3.3-7.3-7.3s3.3-7.3 7.3-7.3 7.3 3.3 7.3 7.3-3.3 7.3-7.3 7.3zm0-11.6c-2.4 0-4.3 1.9-4.3 4.3s1.9 4.3 4.3 4.3 4.3-1.9 4.3-4.3-1.9-4.3-4.3-4.3z" class="st0"/><path id="_Path_3" d="M115.3 35.3h-7.9l.5-1.9c.4-1.5.4-3.1 0-4.6-.6-2.4-2.1-4.5-4.3-5.8-2.2-1.3-4.7-1.6-7.1-1-5 1.3-8.1 6.4-6.8 11.4l.5 1.9H34l.5-1.9c.4-1.5.4-3.1 0-4.6-1.3-5-6.4-8.1-11.4-6.8-5 1.3-8.1 6.4-6.8 11.4l.5 1.9h-8c-7 0-8.8-7-8.8-10.8 0-2.8.8-5.6 2.4-7.9v-4.1c0-.7.4-1.4.9-1.9s1.3-.7 2-.7c4.8.1 9.6-1.1 13.7-3.6C26.3 2.1 34.6-.1 43 0h12.6c4.6 0 9.1 1.1 13.2 3.2L78.7 8c3.8 1.9 7.8 2.9 12.1 3.2 12.3.7 19 3 21.9 4.4 1.4.6 2.2 2 2 3.5v2.5l1.8 1.2c1.1.7 1.7 2 1.7 3.3l.1 6.3c0 .8-.3 1.6-.9 2.1-.6.5-1.3.8-2.1.8zm-4.2-3h4.2l-.1-6.4c0-.3-.1-.5-.3-.7l-3.2-2.1v-4.4c0-.2-.1-.4-.3-.5-2.2-1-8.6-3.4-20.8-4.1-4.6-.3-9.1-1.4-13.2-3.5l-9.9-4.9C63.8 3.9 59.7 3 55.6 3H43c-7.9 0-15.7 2-22.5 5.9-4.5 2.7-9.8 4.1-15.1 4v4.6l-.3.5C3.8 19.9 3 22.2 3 24.6c0 .3.1 7.8 5.8 7.8h4.3c-.6-6 3.3-11.7 9.3-13.2 6.6-1.7 13.4 2.3 15 9 .4 1.4.5 2.8.3 4.2h48.7c-.6-6 3.3-11.7 9.3-13.2 3.2-.8 6.5-.3 9.4 1.4 2.8 1.7 4.9 4.4 5.7 7.6.3 1.3.4 2.7.3 4.1zM5.1 12.9z" class="st0"/><path d="M15 11.3c-.4 0-.8-.1-1.1-.4L10 7H4c-.8 0-1.5-.7-1.5-1.5S3.2 4 4 4h7.3l4.8 4.8c.6.6.6 1.5 0 2.1-.3.3-.7.4-1.1.4zM115.6 67.1h-3V45.5H5.6v21.6h-3V42.5h113z" class="st0"/></g></g></svg>