<svg xmlns="http://www.w3.org/2000/svg" viewBox="0 0 107.7 107.7" enable-background="new 0 0 107.7 107.7"><style type="text/css">.st0{fill:#344154;}</style><title>wheel</title><g id="Layer_2"><g id="Icon_Set"><path d="M60.7 107.7c-25.9 0-47-21.1-47-47h3c0 24.3 19.7 44 44 44s44-19.7 44-44-19.7-44-44-44v-3c25.9 0 47 21.1 47 47s-21.1 47-47 47zM26.3 62.2H0v-1.5C0 27.2 27.2 0 60.7 0h1.5v26.3h-1.5c-18.9 0-34.3 15.4-34.3 34.3v1.6zM3 59.2h20.4c.8-19.4 16.4-35 35.8-35.8V3C28.6 3.8 3.8 28.6 3 59.2zM60.7 86.2c-14.1 0-25.5-11.4-25.5-25.5s11.4-25.5 25.5-25.5 25.5 11.4 25.5 25.5-11.5 25.5-25.5 25.5zm0-48c-12.4 0-22.5 10.1-22.5 22.5s10.1 22.5 22.5 22.5 22.5-10.1 22.5-22.5-10.1-22.5-22.5-22.5zM60.7 70.7c-5.5 0-10-4.5-10-10s4.5-10 10-10 10 4.5 10 10-4.5 10-10 10zm0-17c-3.9 0-7 3.1-7 7s3.1 7 7 7 7-3.1 7-7-3.2-7-7-7zM60.7 47.7c-.8 0-1.5-.7-1.5-1.5v-3c0-.8.7-1.5 1.5-1.5s1.5.7 1.5 1.5v3c0 .8-.7 1.5-1.5 1.5zM50.4 51.9c-.4 0-.8-.1-1.1-.4l-2.1-2.1c-.6-.6-.6-1.5 0-2.1.6-.6 1.5-.6 2.1 0l2.1 2.1c.6.6.6 1.5 0 2.1-.2.3-.6.4-1 .4zM46.2 62.2h-3c-.8 0-1.5-.7-1.5-1.5s.7-1.5 1.5-1.5h3c.8 0 1.5.7 1.5 1.5s-.7 1.5-1.5 1.5zM48.3 74.5c-.4 0-.8-.1-1.1-.4-.6-.6-.6-1.5 0-2.1l2.1-2.1c.6-.6 1.5-.6 2.1 0s.6 1.5 0 2.1l-2.1 2.1c-.2.3-.6.4-1 .4zM60.7 79.7c-.8 0-1.5-.7-1.5-1.5v-3c0-.8.7-1.5 1.5-1.5s1.5.7 1.5 1.5v3c0 .8-.7 1.5-1.5 1.5zM73 74.5c-.4 0-.8-.1-1.1-.4l-2-2.1c-.6-.6-.6-1.5 0-2.1s1.5-.6 2.1 0l2.1 2.1c.6.6.6 1.5 0 2.1-.3.3-.7.4-1.1.4zM78.2 62.2h-3c-.8 0-1.5-.7-1.5-1.5s.7-1.5 1.5-1.5h3c.8 0 1.5.7 1.5 1.5s-.7 1.5-1.5 1.5zM70.9 51.9c-.4 0-.8-.1-1.1-.4-.6-.6-.6-1.5 0-2.1l2.1-2.1c.6-.6 1.5-.6 2.1 0 .6.6.6 1.5 0 2.1l-2 2.1c-.3.3-.7.4-1.1.4zM14.88 49.98l.77-2.9 2.9.77-.77 2.9zM19.2 38.43l1.52-2.6 2.6 1.5-1.5 2.6zM26.38 28.5l2.12-2.12 2.12 2.12-2.12 2.12zM35.87 20.76l2.6-1.5 1.5 2.6-2.6 1.5zM47.06 15.64l2.9-.77.77 2.9-2.9.77z" class="st0"/></g></g></svg>