<svg xmlns="http://www.w3.org/2000/svg" viewBox="0 0 173.07 60.08"><defs><style>.cls-1{fill:#2e333d;fill-rule:evenodd;}</style></defs><title>hatchback</title><g id="Layer_2"><path id="_ÎÓÈ_1" d="M167.36 52.13c2-.34 3.55-.78 4.2-1.38 2.04-1.9 1.42-7.85 1.4-10.9 0-.74-1.9-.75-1.94-1.52-.27-4.7-2.3-13.33-2.8-18.16a7.62 7.62 0 0 0-4-6c-3.63-2.24-14-8.34-17.93-10-2.6-1.1-2-1.35-4.76-1.75-13.85-2-44.13-4.34-57.7 0C72.7 6 63 11.12 52.9 17.38c-17.82 3.07-32.37 5.68-41 8-4.17 1.12-6 3.1-7.25 5.6-1.4 2.73-2.07 4.32-2.72 5.87C.36 37 0 38.4 0 40.33c0 3-.24 5.17.6 8.16A5 5 0 0 0 5.56 52l4.34.14c2.1-.4 2.75-.28 2.57-3.1-.06-1-.08-2-.08-3a18.16 18.16 0 0 1 36.3 0c0 1.4 0 2.77-.08 4.08-.3 4.47-1.7 4 2.6 4.23l73-.08c3.1-.38 4 0 3.5-4.24a39.5 39.5 0 0 1-.15-4 18.16 18.16 0 0 1 36.32 0c0 .9 0 1.78 0 2.64-.13 3.44-.9 4.14 3.52 3.4zM109.2 18.9c1.13-9.15 1.27-11.8 2.13-14a2.14 2.14 0 0 1 1.55-1.07c6.6.3 13.93.2 20.3 1.68 2.28.65 6.92 5.93 8.08 7.52.45.6 3.78 4.5 3.25 5.3a2 2 0 0 1-1.73.93c-9.93.33-21 1.38-30.93 1.5-2.78 0-2.94.7-2.64-1.8zm-37.68 3.23a14.53 14.53 0 0 0 .65-3.13c.15-2.42-5.17-2.6-7.92-2.42 5.33-4 14.12-8.18 21.2-10.63 5.83-2 13.7-2 19.94-2.13 1.08 0 1 .44.9 1.35-.44 2.87-1.5 9.08-2.14 13.25-.3 2-.8 2.5-2.84 2.5-8.12.08-29.9 1.64-29.8 1.25zm74.18 10a14 14 0 1 1-14 14 14 14 0 0 1 14-14zm-115.15 0a14 14 0 1 1-14 14 14 14 0 0 1 14-14z" class="cls-1"/></g></svg>