<svg xmlns="http://www.w3.org/2000/svg" viewBox="0 0 193.07 72.31"><defs><style>.cls-1{fill:#2e333d;fill-rule:evenodd;}</style></defs><title>pickup</title><g id="Layer_2"><path id="_ÎÓÈ_1" d="M192.7 54.57c.6-2.4.26-6.24.35-8.7.1-3-1.18-2.05-2.36-2.87-.26-4.3 0-11.52-.5-15.94-.55-5.16-2-5.8-7.77-5.8l-67.77.16a4.52 4.52 0 0 1-2.7-.54c-1.2-.82-2-10.63-3.22-16.33-.68-3-.66-4.54-4.06-4.54H74.35c-4.52 0-9 2.17-12.8 5.25l-17.3 14a237.57 237.57 0 0 0-37 6.05c-3.3.85-4.64 2.37-4.6 6l.06 12.2a7 7 0 0 0-1.55.3c-1 .35-1.07.7-1.14 1.7-.04.78 0 1.76 0 2.25 0 2 .25 7.54 1.67 8.6a5.24 5.24 0 0 0 2.8 1l3.13.06c2.34-.46 2.8-1.22 3.22-3.85A19.14 19.14 0 0 1 30 37.43a19.42 19.42 0 0 1 19.25 17.3c.3 2.8 1.8 2.83 3.84 2.85l78.06.16c1.64 0 2-.92 2.1-2.47A19.4 19.4 0 0 1 171.9 55c.24 2.6.2 2.86 2.53 2.86h6.3c2.68 0 11.26-.4 12-3.3zm-98.62-35C95 12.3 95.38 7 95.73 5c.15-.9.32-1.46 1.42-1.45h4.62c.37 0 .58.85.65 2.16l.72 13.22c.17 3.2-.17 2.84-1.82 2.84h-4.9c-2.54 0-2.62.15-2.34-2.14zm-34.72 2.17c-1 0 .52-.62.6-1.93.13-2.2-3.92-2.37-6.44-2.2L64 8.14a14.4 14.4 0 0 1 4.3-2.77 16.93 16.93 0 0 1 7.15-1.85h15c1 0 1 .4.83 1.23-.45 3-1.3 11-2 14.7-.33 1.82-.72 2.28-2.6 2.28zM30 41.36a15.47 15.47 0 1 1-15.52 15.47A15.47 15.47 0 0 1 30 41.36zm122.63 0a15.47 15.47 0 1 1-15.47 15.47 15.47 15.47 0 0 1 15.47-15.47z" class="cls-1"/></g></svg>