<svg xmlns="http://www.w3.org/2000/svg" viewBox="0 0 171.67 80.82"><defs><style>.cls-1{fill:#2e333d;fill-rule:evenodd;}</style></defs><title>truck</title><g id="Layer_2"><path id="_ÎÓÈ_1" d="M162.62 61.1c.08-2.3.07-3.17 1-3.17h6a2.1 2.1 0 0 0 2.07-2.1v-13.2c0-3.6-1-3.52-3.87-3.64l-101.4.12c-1.4 0-2.63-.28-2.63 1.45v6.5c0 .77-.94.9-2 .87-.78 0-1.7-.12-1.7-.9V4.65C60.08 1.82 59.56 0 56.4 0h-29c-7 0-9.2 2.57-11.7 6.93-8.03 14.2-13.06 24.65-13.3 41.2l.08 5.06a6.3 6.3 0 0 0-1.42.26c-.92.3-1 .62-1 1.52C0 55.7 0 56.6 0 57c0 1.77-.07 5.84 1.22 6.8a4.75 4.75 0 0 0 2.53.86l7 .14c3 .06 1.66.6 2.73-2.27a16.4 16.4 0 0 1 31 .68c1.32 4.1-.44 3.4 4.6 3.4H115c.82 0 2.83.13 3.28-.47a22.1 22.1 0 0 0 1.33-3.54 16.4 16.4 0 0 1 31.25 1.46c.65 2.47 1 2.43 3.34 2.42 3.24 0 5.2-.06 5.5-.1 2.52-.34 2.93-1 3-2.57 0-.67-.07-1.88 0-2.73zm-143.78-34c-.9 0 .46-.8.52-2.5.1-2.86-3.4-3.07-5.6-2.86C15 17 17.4 13 19.9 8.54s4.92-4.9 8.43-4.9h18.1a1.65 1.65 0 0 1 1.82 1.58v18.93c0 2.4-.63 3-2.26 3zM135 55.75a12.53 12.53 0 1 1-12.53 12.53A12.53 12.53 0 0 1 135 55.75zm-106.13 0A12.53 12.53 0 1 1 16.35 68.3a12.53 12.53 0 0 1 12.53-12.54z" class="cls-1"/></g></svg>